<svg xmlns="http://www.w3.org/2000/svg" viewBox="0 0 2253.54 1533.12"><defs><style>.cls-1{fill:#fff;opacity:0.1;}</style></defs><g id="Ebene_2" data-name="Ebene 2"><g id="Ebene_1-2" data-name="Ebene 1"><circle class="cls-1" cx="575.28" cy="1419.83" r="8.6"/><circle class="cls-1" cx="891.96" cy="1239.43" r="8.6"/><circle class="cls-1" cx="1227.11" cy="1260.73" r="8.6"/><circle class="cls-1" cx="1686.17" cy="1477.56" r="8.6"/><circle class="cls-1" cx="1464.24" cy="1225.52" r="8.6"/><circle class="cls-1" cx="1763.22" cy="1186.93" r="8.6"/><circle class="cls-1" cx="99.84" cy="1226.95" r="8.6"/><circle class="cls-1" cx="170.22" cy="1524.52" r="8.6"/><circle class="cls-1" cx="755.89" cy="1452.79" r="8.6"/><circle class="cls-1" cx="1258.7" cy="1472.77" r="8.6"/><circle class="cls-1" cx="858.47" cy="1395.86" r="5.18"/><circle class="cls-1" cx="1060.36" cy="1408.68" r="5.18"/><circle class="cls-1" cx="1203.21" cy="1387.47" r="5.18"/><circle class="cls-1" cx="1383.31" cy="1364.23" r="5.18"/><circle class="cls-1" cx="1585.2" cy="1377.06" r="5.18"/><circle class="cls-1" cx="381.3" cy="1388.34" r="5.18"/><circle class="cls-1" cx="247.61" cy="1236.51" r="5.18"/><circle class="cls-1" cx="629.61" cy="1226.09" r="5.18"/><circle class="cls-1" cx="618.66" cy="1513.6" r="5.18"/><circle class="cls-1" cx="784.43" cy="1245.51" r="5.18"/><circle class="cls-1" cx="986.33" cy="1258.34" r="5.18"/><circle class="cls-1" cx="1129.17" cy="1237.13" r="5.18"/><circle class="cls-1" cx="1528.2" cy="1518.63" r="5.18"/><circle class="cls-1" cx="776.5" cy="1524.38" r="5.18"/><circle class="cls-1" cx="598.52" cy="1173.77" r="8.6"/><circle class="cls-1" cx="376.59" cy="1425.82" r="8.6"/><circle class="cls-1" cx="1824.94" cy="1117.65" r="8.6"/><circle class="cls-1" cx="721.46" cy="1373.11" r="8.6"/><circle class="cls-1" cx="1045.11" cy="1462.73" r="8.6"/><circle class="cls-1" cx="1194" cy="1153.22" r="8.6"/><circle class="cls-1" cx="1592.72" cy="1425.61" r="8.6"/><circle class="cls-1" cx="1916.37" cy="1515.23" r="8.6"/><circle class="cls-1" cx="144.21" cy="1147.43" r="8.6"/><circle class="cls-1" cx="446.36" cy="1091.36" r="8.6"/><circle class="cls-1" cx="616.56" cy="1330.48" r="5.18"/><circle class="cls-1" cx="482.88" cy="1482.31" r="5.18"/><circle class="cls-1" cx="1355.35" cy="1296.67" r="5.18"/><circle class="cls-1" cx="690.62" cy="1450.56" r="5.18"/><circle class="cls-1" cx="885.58" cy="1504.54" r="5.18"/><circle class="cls-1" cx="1141.41" cy="1362.11" r="5.18"/><circle class="cls-1" cx="1007.72" cy="1513.94" r="5.18"/><circle class="cls-1" cx="1215.46" cy="1482.18" r="5.18"/><circle class="cls-1" cx="45.42" cy="1515.55" r="5.18"/><circle class="cls-1" cx="268.83" cy="1194.53" r="5.18"/><circle class="cls-1" cx="135.14" cy="1346.36" r="5.18"/><circle class="cls-1" cx="342.89" cy="1314.61" r="5.18"/><circle class="cls-1" cx="1006.33" cy="1264.95" r="5.18"/><circle class="cls-1" cx="524.91" cy="1280.83" r="5.18"/><circle class="cls-1" cx="732.65" cy="1249.08" r="5.18"/><circle class="cls-1" cx="1882.78" cy="1442.63" r="8.6"/><circle class="cls-1" cx="1660.85" cy="1190.59" r="8.6"/><circle class="cls-1" cx="1781.82" cy="1342.12" r="5.18"/><circle class="cls-1" cx="1724.81" cy="1483.7" r="5.18"/><circle class="cls-1" cx="1666.39" cy="1191.34" r="8.6"/><circle class="cls-1" cx="1789.34" cy="1390.68" r="8.6"/><circle class="cls-1" cx="1607.04" cy="1501.24" r="5.18"/><circle class="cls-1" cx="382.73" cy="1312.68" r="8.6"/><circle class="cls-1" cx="681.71" cy="1274.1" r="8.6"/><circle class="cls-1" cx="1016.86" cy="1295.39" r="8.6"/><circle class="cls-1" cx="1253.99" cy="1260.18" r="8.6"/><circle class="cls-1" cx="1552.98" cy="1221.59" r="8.6"/><circle class="cls-1" cx="1888.13" cy="1242.89" r="8.6"/><circle class="cls-1" cx="283.62" cy="1469.56" r="8.6"/><circle class="cls-1" cx="1793.49" cy="1477.91" r="8.6"/><circle class="cls-1" cx="545.64" cy="1487.46" r="8.6"/><circle class="cls-1" cx="1048.46" cy="1507.43" r="8.6"/><circle class="cls-1" cx="648.22" cy="1430.52" r="5.18"/><circle class="cls-1" cx="850.12" cy="1443.35" r="5.18"/><circle class="cls-1" cx="992.96" cy="1422.14" r="5.18"/><circle class="cls-1" cx="1173.07" cy="1398.89" r="5.18"/><circle class="cls-1" cx="1374.96" cy="1411.72" r="5.18"/><circle class="cls-1" cx="171.05" cy="1423" r="5.18"/><circle class="cls-1" cx="37.37" cy="1271.17" r="5.18"/><circle class="cls-1" cx="330.26" cy="1110.55" r="5.18"/><circle class="cls-1" cx="419.36" cy="1260.76" r="5.18"/><circle class="cls-1" cx="574.19" cy="1280.17" r="5.18"/><circle class="cls-1" cx="776.8" cy="1362.51" r="5.18"/><circle class="cls-1" cx="918.92" cy="1271.79" r="5.18"/><circle class="cls-1" cx="1302.99" cy="1423.18" r="5.18"/><circle class="cls-1" cx="388.27" cy="1208.44" r="8.6"/><circle class="cls-1" cx="166.34" cy="1460.48" r="8.6"/><circle class="cls-1" cx="1614.69" cy="1152.32" r="8.6"/><circle class="cls-1" cx="511.21" cy="1407.77" r="8.6"/><circle class="cls-1" cx="834.86" cy="1497.39" r="8.6"/><circle class="cls-1" cx="1261.07" cy="1351.08" r="8.6"/><circle class="cls-1" cx="1382.48" cy="1460.27" r="8.6"/><circle class="cls-1" cx="1035.3" cy="1099.65" r="8.6"/><circle class="cls-1" cx="236.12" cy="1126.02" r="8.6"/><circle class="cls-1" cx="406.32" cy="1365.14" r="5.18"/><circle class="cls-1" cx="272.63" cy="1516.97" r="5.18"/><circle class="cls-1" cx="1145.1" cy="1331.34" r="5.18"/><circle class="cls-1" cx="480.37" cy="1485.22" r="5.18"/><circle class="cls-1" cx="931.16" cy="1396.77" r="5.18"/><circle class="cls-1" cx="58.58" cy="1229.2" r="5.18"/><circle class="cls-1" cx="132.64" cy="1349.27" r="5.18"/><circle class="cls-1" cx="796.08" cy="1299.61" r="5.18"/><circle class="cls-1" cx="241.75" cy="1423.18" r="5.18"/><circle class="cls-1" cx="522.41" cy="1283.74" r="5.18"/><circle class="cls-1" cx="1685.43" cy="1355.88" r="8.6"/><circle class="cls-1" cx="1497.49" cy="1309.16" r="8.6"/><circle class="cls-1" cx="1749.59" cy="1186.66" r="8.6"/><circle class="cls-1" cx="1430.75" cy="1379.14" r="5.18"/><circle class="cls-1" cx="1811.31" cy="1117.38" r="8.6"/><circle class="cls-1" cx="1330.03" cy="1154.9" r="8.6"/><circle class="cls-1" cx="1627.8" cy="1292.11" r="8.6"/><circle class="cls-1" cx="1507.7" cy="1435.01" r="5.18"/><circle class="cls-1" cx="775.2" cy="958.84" r="8.6"/><circle class="cls-1" cx="506.92" cy="596.83" r="8.6"/><circle class="cls-1" cx="541.78" cy="241.74" r="8.6"/><circle class="cls-1" cx="858.46" cy="61.34" r="8.6"/><circle class="cls-1" cx="1193.61" cy="82.64" r="8.6"/><circle class="cls-1" cx="851.79" cy="649.54" r="8.6"/><circle class="cls-1" cx="1175.44" cy="559.92" r="8.6"/><circle class="cls-1" cx="1600.11" cy="796.38" r="8.6"/><circle class="cls-1" cx="1378.19" cy="544.33" r="8.6"/><circle class="cls-1" cx="1652.67" cy="299.47" r="8.6"/><circle class="cls-1" cx="1549.97" cy="10.18" r="7.71"/><circle class="cls-1" cx="1723.06" cy="597.04" r="8.6"/><circle class="cls-1" cx="66.34" cy="48.86" r="8.6"/><circle class="cls-1" cx="1242.76" cy="1158.16" r="8.6"/><circle class="cls-1" cx="1541.74" cy="1119.58" r="8.6"/><circle class="cls-1" cx="1876.89" cy="1140.87" r="8.6"/><circle class="cls-1" cx="136.72" cy="346.43" r="8.6"/><circle class="cls-1" cx="285.23" cy="416.12" r="8.6"/><circle class="cls-1" cx="151.6" cy="1074.56" r="8.6"/><circle class="cls-1" cx="274.54" cy="875.22" r="8.6"/><circle class="cls-1" cx="1375.88" cy="957.66" r="8.6"/><circle class="cls-1" cx="576.7" cy="931.3" r="8.6"/><circle class="cls-1" cx="921.56" cy="984.01" r="8.6"/><circle class="cls-1" cx="722.39" cy="274.7" r="8.6"/><circle class="cls-1" cx="901.56" cy="384.31" r="8.6"/><circle class="cls-1" cx="1225.21" cy="294.68" r="8.6"/><circle class="cls-1" cx="746.89" cy="692.17" r="5.18"/><circle class="cls-1" cx="613.21" cy="540.34" r="5.18"/><circle class="cls-1" cx="1485.68" cy="725.98" r="5.18"/><circle class="cls-1" cx="1697.89" cy="1148.92" r="5.18"/><circle class="cls-1" cx="824.97" cy="217.77" r="5.18"/><circle class="cls-1" cx="1026.86" cy="230.6" r="5.18"/><circle class="cls-1" cx="820.95" cy="572.1" r="5.18"/><circle class="cls-1" cx="1015.92" cy="518.11" r="5.18"/><circle class="cls-1" cx="1271.74" cy="660.55" r="5.18"/><circle class="cls-1" cx="1932.58" cy="447.37" r="5.18"/><circle class="cls-1" cx="1303.4" cy="361.22" r="5.18"/><circle class="cls-1" cx="1169.71" cy="209.39" r="5.18"/><circle class="cls-1" cx="1349.81" cy="186.14" r="5.18"/><circle class="cls-1" cx="1551.7" cy="198.97" r="5.18"/><circle class="cls-1" cx="1345.8" cy="540.47" r="5.18"/><circle class="cls-1" cx="1540.76" cy="486.48" r="5.18"/><circle class="cls-1" cx="316.14" cy="509.58" r="5.18"/><circle class="cls-1" cx="182.45" cy="357.75" r="5.18"/><circle class="cls-1" cx="347.8" cy="210.25" r="5.18"/><circle class="cls-1" cx="214.11" cy="58.42" r="5.18"/><circle class="cls-1" cx="596.11" cy="48" r="5.18"/><circle class="cls-1" cx="390.2" cy="389.5" r="5.18"/><circle class="cls-1" cx="585.16" cy="335.52" r="5.18"/><circle class="cls-1" cx="469.8" cy="1016.3" r="5.18"/><circle class="cls-1" cx="265.47" cy="676.29" r="5.18"/><circle class="cls-1" cx="473.22" cy="708.04" r="5.18"/><circle class="cls-1" cx="750.93" cy="67.42" r="5.18"/><circle class="cls-1" cx="952.83" cy="80.25" r="5.18"/><circle class="cls-1" cx="1095.67" cy="59.04" r="5.18"/><circle class="cls-1" cx="1136.66" cy="757.7" r="5.18"/><circle class="cls-1" cx="655.24" cy="741.82" r="5.18"/><circle class="cls-1" cx="746.69" cy="879.89" r="5.18"/><circle class="cls-1" cx="1494.7" cy="340.54" r="5.18"/><circle class="cls-1" cx="743" cy="346.29" r="5.18"/><circle class="cls-1" cx="850.93" cy="412.32" r="5.18"/><circle class="cls-1" cx="1045.89" cy="358.33" r="5.18"/><circle class="cls-1" cx="343.09" cy="247.73" r="8.6"/><circle class="cls-1" cx="395.65" cy="744.63" r="8.6"/><circle class="cls-1" cx="694.63" cy="783.22" r="8.6"/><circle class="cls-1" cx="1029.78" cy="761.92" r="8.6"/><circle class="cls-1" cx="687.96" cy="195.02" r="8.6"/><circle class="cls-1" cx="1011.61" cy="284.64" r="8.6"/><circle class="cls-1" cx="1215.62" cy="396" r="8.6"/><circle class="cls-1" cx="1488.84" cy="545.09" r="8.6"/><circle class="cls-1" cx="1266.91" cy="797.13" r="8.6"/><circle class="cls-1" cx="1565.89" cy="835.72" r="8.6"/><circle class="cls-1" cx="1901.04" cy="814.43" r="8.6"/><circle class="cls-1" cx="1559.22" cy="247.52" r="8.6"/><circle class="cls-1" cx="1882.87" cy="337.14" r="8.6"/><circle class="cls-1" cx="314.71" cy="1065.04" r="8.6"/><circle class="cls-1" cx="296.54" cy="587.75" r="8.6"/><circle class="cls-1" cx="1386.12" cy="1131.35" r="8.6"/><circle class="cls-1" cx="571.73" cy="1032.8" r="8.6"/><circle class="cls-1" cx="906.88" cy="1011.51" r="8.6"/><circle class="cls-1" cx="1144.01" cy="1046.72" r="8.6"/><circle class="cls-1" cx="1916.85" cy="626.5" r="8.6"/><circle class="cls-1" cx="558.56" cy="569.86" r="8.6"/><circle class="cls-1" cx="737.73" cy="460.26" r="8.6"/><circle class="cls-1" cx="1061.38" cy="549.88" r="8.6"/><circle class="cls-1" cx="583.06" cy="152.39" r="5.18"/><circle class="cls-1" cx="449.38" cy="304.22" r="5.18"/><circle class="cls-1" cx="1321.85" cy="118.58" r="5.18"/><circle class="cls-1" cx="135.71" cy="1056.99" r="5.18"/><circle class="cls-1" cx="1474.81" cy="920.67" r="5.18"/><circle class="cls-1" cx="863.03" cy="613.97" r="5.18"/><circle class="cls-1" cx="657.12" cy="272.47" r="5.18"/><circle class="cls-1" cx="852.08" cy="326.46" r="5.18"/><circle class="cls-1" cx="1107.91" cy="184.02" r="5.18"/><circle class="cls-1" cx="974.22" cy="335.85" r="5.18"/><circle class="cls-1" cx="1139.57" cy="483.35" r="5.18"/><circle class="cls-1" cx="1005.88" cy="635.18" r="5.18"/><circle class="cls-1" cx="1185.98" cy="658.42" r="5.18"/><circle class="cls-1" cx="1387.87" cy="645.59" r="5.18"/><circle class="cls-1" cx="1181.96" cy="304.09" r="5.18"/><circle class="cls-1" cx="1376.93" cy="358.08" r="5.18"/><circle class="cls-1" cx="183.97" cy="634.31" r="5.18"/><circle class="cls-1" cx="50.28" cy="786.14" r="5.18"/><circle class="cls-1" cx="421.62" cy="949.91" r="5.18"/><circle class="cls-1" cx="432.28" cy="796.56" r="5.18"/><circle class="cls-1" cx="226.37" cy="455.06" r="5.18"/><circle class="cls-1" cx="421.33" cy="509.05" r="5.18"/><circle class="cls-1" cx="101.64" cy="168.27" r="5.18"/><circle class="cls-1" cx="309.39" cy="136.52" r="5.18"/><circle class="cls-1" cx="697.42" cy="1127.87" r="5.18"/><circle class="cls-1" cx="789" cy="764.31" r="5.18"/><circle class="cls-1" cx="931.84" cy="785.52" r="5.18"/><circle class="cls-1" cx="972.83" cy="86.86" r="5.18"/><circle class="cls-1" cx="491.41" cy="102.74" r="5.18"/><circle class="cls-1" cx="699.15" cy="70.99" r="5.18"/><circle class="cls-1" cx="1330.87" cy="504.02" r="5.18"/><circle class="cls-1" cx="579.17" cy="498.27" r="5.18"/><circle class="cls-1" cx="687.1" cy="432.25" r="5.18"/><circle class="cls-1" cx="882.06" cy="486.23" r="5.18"/><circle class="cls-1" cx="1796.73" cy="761.44" r="8.6"/><circle class="cls-1" cx="1574.8" cy="509.4" r="8.6"/><circle class="cls-1" cx="1849.28" cy="264.54" r="8.6"/><circle class="cls-1" cx="1483.62" cy="1011.31" r="8.6"/><circle class="cls-1" cx="1919.67" cy="562.11" r="8.6"/><circle class="cls-1" cx="1572.49" cy="922.73" r="8.6"/><circle class="cls-1" cx="1682.29" cy="691.04" r="5.18"/><circle class="cls-1" cx="1748.32" cy="164.04" r="5.18"/><circle class="cls-1" cx="1737.37" cy="451.55" r="5.18"/><circle class="cls-1" cx="1691.31" cy="305.61" r="5.18"/><circle class="cls-1" cx="1808.81" cy="1023.16" r="8.6"/><circle class="cls-1" cx="1685.45" cy="510.16" r="8.6"/><circle class="cls-1" cx="1762.51" cy="800.79" r="8.6"/><circle class="cls-1" cx="1755.84" cy="212.59" r="8.6"/><circle class="cls-1" cx="1584.49" cy="610.66" r="5.18"/><circle class="cls-1" cx="1573.54" cy="323.15" r="5.18"/><circle class="cls-1" cx="518.61" cy="883.54" r="8.6"/><circle class="cls-1" cx="296.68" cy="631.5" r="8.6"/><circle class="cls-1" cx="1745.03" cy="939.66" r="8.6"/><circle class="cls-1" cx="349.23" cy="134.59" r="8.6"/><circle class="cls-1" cx="648.22" cy="96.01" r="8.6"/><circle class="cls-1" cx="983.37" cy="117.3" r="8.6"/><circle class="cls-1" cx="641.55" cy="684.21" r="8.6"/><circle class="cls-1" cx="965.19" cy="594.58" r="8.6"/><circle class="cls-1" cx="1389.87" cy="831.04" r="8.6"/><circle class="cls-1" cx="1071.63" cy="630.75" r="8.6"/><circle class="cls-1" cx="1442.42" cy="334.14" r="8.6"/><circle class="cls-1" cx="1220.5" cy="82.09" r="8.6"/><circle class="cls-1" cx="1519.48" cy="43.5" r="8.6"/><circle class="cls-1" cx="1854.63" cy="64.8" r="8.6"/><circle class="cls-1" cx="1512.81" cy="631.71" r="8.6"/><circle class="cls-1" cx="1836.45" cy="542.08" r="8.6"/><circle class="cls-1" cx="1331.49" cy="1154.24" r="8.6"/><circle class="cls-1" cx="250.12" cy="291.47" r="8.6"/><circle class="cls-1" cx="64.29" cy="909.89" r="8.6"/><circle class="cls-1" cx="1165.63" cy="992.33" r="8.6"/><circle class="cls-1" cx="366.45" cy="965.96" r="8.6"/><circle class="cls-1" cx="711.32" cy="1018.67" r="8.6"/><circle class="cls-1" cx="1759.99" cy="299.82" r="8.6"/><circle class="cls-1" cx="512.14" cy="309.37" r="8.6"/><circle class="cls-1" cx="690.66" cy="466.81" r="8.6"/><circle class="cls-1" cx="1014.96" cy="329.34" r="8.6"/><circle class="cls-1" cx="536.65" cy="726.83" r="5.18"/><circle class="cls-1" cx="402.96" cy="575" r="5.18"/><circle class="cls-1" cx="1275.43" cy="760.64" r="5.18"/><circle class="cls-1" cx="614.72" cy="252.43" r="5.18"/><circle class="cls-1" cx="816.62" cy="265.26" r="5.18"/><circle class="cls-1" cx="610.71" cy="606.76" r="5.18"/><circle class="cls-1" cx="1061.49" cy="695.21" r="5.18"/><circle class="cls-1" cx="1679.69" cy="767.58" r="5.18"/><circle class="cls-1" cx="1093.15" cy="395.88" r="5.18"/><circle class="cls-1" cx="959.46" cy="244.05" r="5.18"/><circle class="cls-1" cx="1139.57" cy="220.8" r="5.18"/><circle class="cls-1" cx="1341.46" cy="233.63" r="5.18"/><circle class="cls-1" cx="1135.55" cy="575.13" r="5.18"/><circle class="cls-1" cx="1251.82" cy="458.46" r="5.18"/><circle class="cls-1" cx="105.9" cy="544.24" r="5.18"/><circle class="cls-1" cx="137.55" cy="244.91" r="5.18"/><circle class="cls-1" cx="385.86" cy="82.67" r="5.18"/><circle class="cls-1" cx="179.95" cy="424.17" r="5.18"/><circle class="cls-1" cx="374.92" cy="370.18" r="5.18"/><circle class="cls-1" cx="188.91" cy="862.78" r="5.18"/><circle class="cls-1" cx="55.23" cy="710.95" r="5.18"/><circle class="cls-1" cx="262.97" cy="742.71" r="5.18"/><circle class="cls-1" cx="540.69" cy="102.08" r="5.18"/><circle class="cls-1" cx="743.3" cy="184.42" r="5.18"/><circle class="cls-1" cx="885.43" cy="93.7" r="5.18"/><circle class="cls-1" cx="1030.62" cy="963.37" r="5.18"/><circle class="cls-1" cx="444.99" cy="776.48" r="5.18"/><circle class="cls-1" cx="652.74" cy="808.24" r="5.18"/><circle class="cls-1" cx="1269.49" cy="245.09" r="5.18"/><circle class="cls-1" cx="532.75" cy="380.96" r="5.18"/><circle class="cls-1" cx="640.69" cy="446.98" r="5.18"/><circle class="cls-1" cx="835.65" cy="392.99" r="5.18"/><circle class="cls-1" cx="354.77" cy="30.35" r="8.6"/><circle class="cls-1" cx="132.85" cy="282.39" r="8.6"/><circle class="cls-1" cx="185.4" cy="779.29" r="8.6"/><circle class="cls-1" cx="484.38" cy="817.88" r="8.6"/><circle class="cls-1" cx="819.53" cy="796.59" r="8.6"/><circle class="cls-1" cx="477.72" cy="229.68" r="8.6"/><circle class="cls-1" cx="801.36" cy="319.3" r="8.6"/><circle class="cls-1" cx="1227.57" cy="172.99" r="8.6"/><circle class="cls-1" cx="1002.99" cy="451.31" r="8.6"/><circle class="cls-1" cx="1278.59" cy="579.75" r="8.6"/><circle class="cls-1" cx="1056.67" cy="831.8" r="8.6"/><circle class="cls-1" cx="1355.65" cy="870.38" r="8.6"/><circle class="cls-1" cx="1690.8" cy="849.09" r="8.6"/><circle class="cls-1" cx="1348.98" cy="282.18" r="8.6"/><circle class="cls-1" cx="1672.62" cy="371.81" r="8.6"/><circle class="cls-1" cx="104.46" cy="1099.7" r="8.6"/><circle class="cls-1" cx="86.29" cy="622.42" r="8.6"/><circle class="cls-1" cx="835.85" cy="1167.37" r="8.6"/><circle class="cls-1" cx="361.48" cy="1067.47" r="8.6"/><circle class="cls-1" cx="696.63" cy="1046.17" r="8.6"/><circle class="cls-1" cx="933.76" cy="1081.38" r="8.6"/><circle class="cls-1" cx="1625.5" cy="446.98" r="8.6"/><circle class="cls-1" cx="348.31" cy="604.52" r="8.6"/><circle class="cls-1" cx="527.48" cy="494.92" r="8.6"/><circle class="cls-1" cx="851.13" cy="584.54" r="8.6"/><circle class="cls-1" cx="372.82" cy="187.05" r="5.18"/><circle class="cls-1" cx="239.13" cy="338.88" r="5.18"/><circle class="cls-1" cx="1111.6" cy="153.25" r="5.18"/><circle class="cls-1" cx="450.89" cy="661.46" r="5.18"/><circle class="cls-1" cx="652.79" cy="648.63" r="5.18"/><circle class="cls-1" cx="446.88" cy="307.13" r="5.18"/><circle class="cls-1" cx="641.84" cy="361.12" r="5.18"/><circle class="cls-1" cx="897.66" cy="218.68" r="5.18"/><circle class="cls-1" cx="763.97" cy="370.51" r="5.18"/><circle class="cls-1" cx="929.32" cy="518.01" r="5.18"/><circle class="cls-1" cx="795.63" cy="669.84" r="5.18"/><circle class="cls-1" cx="975.74" cy="693.08" r="5.18"/><circle class="cls-1" cx="1177.63" cy="680.26" r="5.18"/><circle class="cls-1" cx="971.72" cy="338.76" r="5.18"/><circle class="cls-1" cx="1166.68" cy="392.74" r="5.18"/><circle class="cls-1" cx="211.38" cy="984.57" r="5.18"/><circle class="cls-1" cx="222.03" cy="831.22" r="5.18"/><circle class="cls-1" cx="211.08" cy="543.71" r="5.18"/><circle class="cls-1" cx="99.14" cy="171.18" r="5.18"/><circle class="cls-1" cx="376.86" cy="811.81" r="5.18"/><circle class="cls-1" cx="578.75" cy="798.98" r="5.18"/><circle class="cls-1" cx="721.59" cy="820.19" r="5.18"/><circle class="cls-1" cx="762.58" cy="121.52" r="5.18"/><circle class="cls-1" cx="208.25" cy="245.09" r="5.18"/><circle class="cls-1" cx="488.91" cy="105.65" r="5.18"/><circle class="cls-1" cx="1120.62" cy="538.68" r="5.18"/><circle class="cls-1" cx="368.92" cy="532.93" r="5.18"/><circle class="cls-1" cx="476.86" cy="466.91" r="5.18"/><circle class="cls-1" cx="671.82" cy="520.9" r="5.18"/><circle class="cls-1" cx="1836.4" cy="903.93" r="8.6"/><circle class="cls-1" cx="1577.88" cy="701.89" r="8.6"/><circle class="cls-1" cx="1347.99" cy="726.52" r="8.6"/><circle class="cls-1" cx="1651.93" cy="177.79" r="8.6"/><circle class="cls-1" cx="1463.99" cy="131.07" r="8.6"/><circle class="cls-1" cx="1802.61" cy="400.66" r="8.6"/><circle class="cls-1" cx="1830.77" cy="692.04" r="8.6"/><circle class="cls-1" cx="894.77" cy="882.52" r="8.6"/><circle class="cls-1" cx="1164.08" cy="882.52" r="5.18"/><circle class="cls-1" cx="1397.25" cy="201.05" r="5.18"/><circle class="cls-1" cx="1545.04" cy="386.61" r="5.18"/><circle class="cls-1" cx="1473.68" cy="460.24" r="5.18"/><circle class="cls-1" cx="1445.26" cy="501.56" r="8.6"/><circle class="cls-1" cx="735" cy="605.5" r="8.6"/><circle class="cls-1" cx="1937.5" cy="199.41" r="8.6"/><circle class="cls-1" cx="1410.39" cy="414.52" r="8.6"/><circle class="cls-1" cx="1594.3" cy="114.02" r="8.6"/><circle class="cls-1" cx="1754.16" cy="699.8" r="8.6"/><circle class="cls-1" cx="1257.48" cy="950.29" r="5.18"/><circle class="cls-1" cx="1474.2" cy="256.92" r="5.18"/><circle class="cls-1" cx="37.99" cy="1174.3" r="8.6"/><circle class="cls-1" cx="92.4" cy="1462.9" r="5.18"/><circle class="cls-1" cx="100.46" cy="1218.52" r="5.18"/><circle class="cls-1" cx="79.24" cy="1176.54" r="5.18"/><circle class="cls-1" cx="5.18" cy="1296.62" r="5.18"/><circle class="cls-1" cx="87.54" cy="733.49" r="5.18"/><circle class="cls-1" cx="36.18" cy="115.62" r="5.18"/><circle class="cls-1" cx="73.53" cy="857.23" r="8.6"/><circle class="cls-1" cx="31.93" cy="491.59" r="5.18"/><circle class="cls-1" cx="82.6" cy="658.3" r="5.18"/><circle class="cls-1" cx="33.36" cy="1047.04" r="8.6"/><circle class="cls-1" cx="51.53" cy="569.76" r="8.6"/><circle class="cls-1" cx="38.68" cy="118.53" r="5.18"/><circle class="cls-1" cx="1993.6" cy="1308.38" r="8.6"/><circle class="cls-1" cx="2070.66" cy="1017.74" r="8.6"/><circle class="cls-1" cx="2132.37" cy="948.47" r="8.6"/><circle class="cls-1" cx="2223.8" cy="1346.04" r="8.6"/><circle class="cls-1" cx="2190.22" cy="1273.44" r="8.6"/><circle class="cls-1" cx="1968.29" cy="1021.4" r="8.6"/><circle class="cls-1" cx="2089.25" cy="1172.94" r="5.18"/><circle class="cls-1" cx="2032.24" cy="1314.51" r="5.18"/><circle class="cls-1" cx="1973.83" cy="1022.16" r="8.6"/><circle class="cls-1" cx="2096.77" cy="1221.49" r="8.6"/><circle class="cls-1" cx="1914.47" cy="1332.05" r="5.18"/><circle class="cls-1" cx="2195.56" cy="1073.7" r="8.6"/><circle class="cls-1" cx="2100.93" cy="1308.72" r="8.6"/><circle class="cls-1" cx="1922.13" cy="983.13" r="8.6"/><circle class="cls-1" cx="1992.86" cy="1186.69" r="8.6"/><circle class="cls-1" cx="2057.02" cy="1017.47" r="8.6"/><circle class="cls-1" cx="2143.54" cy="1409.57" r="8.6"/><circle class="cls-1" cx="2118.74" cy="948.2" r="8.6"/><circle class="cls-1" cx="1935.24" cy="1122.92" r="8.6"/><circle class="cls-1" cx="1960.11" cy="130.29" r="8.6"/><circle class="cls-1" cx="2030.49" cy="427.86" r="8.6"/><circle class="cls-1" cx="2184.33" cy="971.68" r="8.6"/><circle class="cls-1" cx="2005.32" cy="979.73" r="5.18"/><circle class="cls-1" cx="2240.01" cy="278.18" r="5.18"/><circle class="cls-1" cx="2208.48" cy="645.24" r="8.6"/><circle class="cls-1" cx="2190.3" cy="167.96" r="8.6"/><circle class="cls-1" cx="2224.28" cy="457.31" r="8.6"/><circle class="cls-1" cx="2104.16" cy="592.25" r="8.6"/><circle class="cls-1" cx="2156.72" cy="95.35" r="8.6"/><circle class="cls-1" cx="2227.1" cy="392.92" r="8.6"/><circle class="cls-1" cx="1989.73" cy="521.86" r="5.18"/><circle class="cls-1" cx="2044.8" cy="282.36" r="5.18"/><circle class="cls-1" cx="1998.74" cy="136.42" r="5.18"/><circle class="cls-1" cx="2116.25" cy="853.97" r="8.6"/><circle class="cls-1" cx="1992.89" cy="340.97" r="8.6"/><circle class="cls-1" cx="2069.94" cy="631.6" r="8.6"/><circle class="cls-1" cx="2063.27" cy="43.4" r="8.6"/><circle class="cls-1" cx="2052.46" cy="770.47" r="8.6"/><circle class="cls-1" cx="2143.89" cy="372.89" r="8.6"/><circle class="cls-1" cx="2067.43" cy="130.63" r="8.6"/><circle class="cls-1" cx="1987.13" cy="598.39" r="5.18"/><circle class="cls-1" cx="1998.23" cy="679.9" r="8.6"/><circle class="cls-1" cx="1980.06" cy="202.62" r="8.6"/><circle class="cls-1" cx="1932.94" cy="277.79" r="8.6"/><circle class="cls-1" cx="2143.83" cy="734.75" r="8.6"/><circle class="cls-1" cx="1959.36" cy="8.6" r="8.6"/><circle class="cls-1" cx="2110.05" cy="231.48" r="8.6"/><circle class="cls-1" cx="2138.2" cy="522.85" r="8.6"/><circle class="cls-1" cx="2244.94" cy="30.22" r="8.6"/><circle class="cls-1" cx="2061.6" cy="530.61" r="8.6"/></g></g></svg>