<svg id="Ebene_1" data-name="Ebene 1" xmlns="http://www.w3.org/2000/svg" xmlns:xlink="http://www.w3.org/1999/xlink" viewBox="0 0 1280 1280"><defs><style>.cls-1{fill:none;}.cls-10,.cls-2,.cls-3,.cls-4,.cls-5,.cls-6{fill:#fff;}.cls-2{opacity:0.25;}.cls-2,.cls-3,.cls-4,.cls-5,.cls-6{isolation:isolate;}.cls-3{opacity:0.4;}.cls-4{opacity:0.15;}.cls-5{opacity:0.35;}.cls-6,.cls-7{opacity:0.1;}.cls-8{clip-path:url(#clip-path);}.cls-9{opacity:0.61;}.cls-11{clip-path:url(#clip-path-2);}.cls-12{clip-path:url(#clip-path-3);}.cls-13{clip-path:url(#clip-path-4);}.cls-14{clip-path:url(#clip-path-5);}.cls-15{clip-path:url(#clip-path-6);}.cls-16{clip-path:url(#clip-path-7);}.cls-17{clip-path:url(#clip-path-8);}.cls-18{clip-path:url(#clip-path-9);}.cls-19{clip-path:url(#clip-path-10);}.cls-20{clip-path:url(#clip-path-11);}.cls-21{clip-path:url(#clip-path-12);}.cls-22{clip-path:url(#clip-path-13);}.cls-23{clip-path:url(#clip-path-14);}.cls-24{clip-path:url(#clip-path-15);}.cls-25{clip-path:url(#clip-path-16);}.cls-26{clip-path:url(#clip-path-17);}.cls-27{clip-path:url(#clip-path-18);}.cls-28{clip-path:url(#clip-path-19);}.cls-29{clip-path:url(#clip-path-20);}.cls-30{clip-path:url(#clip-path-21);}.cls-31{clip-path:url(#clip-path-22);}.cls-32{clip-path:url(#clip-path-23);}.cls-33{clip-path:url(#clip-path-24);}.cls-34{clip-path:url(#clip-path-25);}.cls-35{clip-path:url(#clip-path-26);}.cls-36{clip-path:url(#clip-path-27);}.cls-37{clip-path:url(#clip-path-28);}.cls-38{clip-path:url(#clip-path-29);}.cls-39{clip-path:url(#clip-path-30);}.cls-40{clip-path:url(#clip-path-31);}.cls-41{clip-path:url(#clip-path-32);}.cls-42{clip-path:url(#clip-path-33);}.cls-43{clip-path:url(#clip-path-34);}.cls-44{clip-path:url(#clip-path-35);}.cls-45{opacity:0.57;}.cls-46{clip-path:url(#clip-path-36);}.cls-47{fill:url(#Unbenannter_Verlauf_4);}.cls-48{clip-path:url(#clip-path-37);}.cls-49{clip-path:url(#clip-path-38);}.cls-50{fill:url(#Unbenannter_Verlauf_4-2);}.cls-51{clip-path:url(#clip-path-39);}.cls-52{clip-path:url(#clip-path-40);}.cls-53{fill:url(#Unbenannter_Verlauf_4-3);}.cls-54{clip-path:url(#clip-path-41);}.cls-55{clip-path:url(#clip-path-42);}.cls-56{fill:url(#Unbenannter_Verlauf_4-4);}</style><clipPath id="clip-path"><rect class="cls-1" x="114.96" y="545.44" width="8.54" height="8.84"/></clipPath><clipPath id="clip-path-2"><rect class="cls-1" x="132.77" y="471.62" width="8.54" height="8.84"/></clipPath><clipPath id="clip-path-3"><rect class="cls-1" x="209.14" y="530.17" width="8.54" height="8.84"/></clipPath><clipPath id="clip-path-4"><rect class="cls-1" x="456.06" y="568.35" width="8.54" height="8.84"/></clipPath><clipPath id="clip-path-5"><rect class="cls-1" x="756.44" y="535.26" width="8.54" height="8.84"/></clipPath><clipPath id="clip-path-6"><rect class="cls-1" x="590.98" y="479.26" width="8.54" height="8.84"/></clipPath><clipPath id="clip-path-7"><rect class="cls-1" x="305.88" y="469.08" width="8.54" height="8.84"/></clipPath><clipPath id="clip-path-8"><rect class="cls-1" x="237.14" y="672.72" width="8.54" height="8.84"/></clipPath><clipPath id="clip-path-9"><rect class="cls-1" x="89.5" y="624.36" width="8.54" height="8.84"/></clipPath><clipPath id="clip-path-10"><rect class="cls-1" x="331.33" y="652.36" width="8.54" height="8.84"/></clipPath><clipPath id="clip-path-11"><rect class="cls-1" x="639.35" y="680.36" width="8.54" height="8.84"/></clipPath><clipPath id="clip-path-12"><rect class="cls-1" x="837.9" y="616.72" width="8.54" height="8.84"/></clipPath><clipPath id="clip-path-13"><rect class="cls-1" x="1148.46" y="497.08" width="8.54" height="8.84"/></clipPath><clipPath id="clip-path-14"><rect class="cls-1" x="1158.65" y="700.73" width="8.54" height="8.84"/></clipPath><clipPath id="clip-path-15"><rect class="cls-1" x="899" y="822.92" width="8.54" height="8.84"/></clipPath><clipPath id="clip-path-16"><rect class="cls-1" x="695.35" y="751.64" width="8.54" height="8.84"/></clipPath><clipPath id="clip-path-17"><rect class="cls-1" x="1079.73" y="603.99" width="8.54" height="8.84"/></clipPath><clipPath id="clip-path-18"><rect class="cls-1" x="919.36" y="497.08" width="8.54" height="8.84"/></clipPath><clipPath id="clip-path-19"><rect class="cls-1" x="962.64" y="705.82" width="8.54" height="8.84"/></clipPath><clipPath id="clip-path-20"><rect class="cls-1" x="781.9" y="912.01" width="8.54" height="8.84"/></clipPath><clipPath id="clip-path-21"><rect class="cls-1" x="695.35" y="962.92" width="8.54" height="8.84"/></clipPath><clipPath id="clip-path-22"><rect class="cls-1" x="1245.2" y="858.56" width="8.54" height="8.84"/></clipPath><clipPath id="clip-path-23"><rect class="cls-1" x="1107.74" y="820.37" width="8.54" height="8.84"/></clipPath><clipPath id="clip-path-24"><rect class="cls-1" x="998.28" y="906.92" width="8.54" height="8.84"/></clipPath><clipPath id="clip-path-25"><rect class="cls-1" x="1176.47" y="945.1" width="8.54" height="8.84"/></clipPath><clipPath id="clip-path-26"><rect class="cls-1" x="1011.01" y="497.08" width="8.54" height="8.84"/></clipPath><clipPath id="clip-path-27"><rect class="cls-1" x="560.43" y="629.45" width="8.54" height="8.84"/></clipPath><clipPath id="clip-path-28"><rect class="cls-1" x="433.15" y="718.54" width="8.54" height="8.84"/></clipPath><clipPath id="clip-path-29"><rect class="cls-1" x="186.23" y="629.45" width="8.54" height="8.84"/></clipPath><clipPath id="clip-path-30"><rect class="cls-1" x="86.95" y="700.73" width="8.54" height="8.84"/></clipPath><clipPath id="clip-path-31"><rect class="cls-1" x="410.24" y="512.35" width="8.54" height="8.84"/></clipPath><clipPath id="clip-path-32"><rect class="cls-1" x="873.54" y="922.19" width="8.54" height="8.84"/></clipPath><clipPath id="clip-path-33"><rect class="cls-1" x="812.44" y="682.91" width="8.54" height="8.84"/></clipPath><clipPath id="clip-path-34"><rect class="cls-1" x="611.34" y="570.9" width="8.54" height="8.84"/></clipPath><clipPath id="clip-path-35"><rect class="cls-1" x="904.01" y="431.81" width="80.24" height="223.95" transform="translate(-30.51 1030.77) rotate(-56.49)"/></clipPath><clipPath id="clip-path-36"><path class="cls-1" d="M828.55,515.36l216.85,67.18a8.33,8.33,0,0,0,5.25-15.81l-.22-.07c-.23-.07-.46-.14-.69-.19Z"/></clipPath><linearGradient id="Unbenannter_Verlauf_4" x1="2819.28" y1="1063.39" x2="2819.94" y2="1063.39" gradientTransform="matrix(-342.96, -92.61, -103.97, 385.02, 1078515.73, -147758.07)" gradientUnits="userSpaceOnUse"><stop offset="0" stop-color="#fff"/><stop offset="0.47" stop-color="#fff"/><stop offset="1" stop-color="#f4f7f9"/></linearGradient><clipPath id="clip-path-37"><rect class="cls-1" x="899.76" y="442.86" width="80.24" height="223.94" transform="translate(17.29 1137.97) rotate(-62.85)"/></clipPath><clipPath id="clip-path-38"><path class="cls-1" d="M822,539.44l223,42.77a8.33,8.33,0,0,0,2.93-16.4l-.4-.06Z"/></clipPath><linearGradient id="Unbenannter_Verlauf_4-2" x1="2819.15" y1="1062.3" x2="2819.81" y2="1062.3" gradientTransform="matrix(-351.11, -54.08, -60.71, 394.17, 1055377.96, -265690.63)" xlink:href="#Unbenannter_Verlauf_4"/><clipPath id="clip-path-39"><rect class="cls-1" x="668.58" y="329.28" width="80.24" height="223.94" transform="translate(-18.61 851.11) rotate(-61.31)"/></clipPath><clipPath id="clip-path-40"><path class="cls-1" d="M591.18,422.67,812.91,471.4a8.33,8.33,0,1,0,3.79-16.22h0c-.27-.06-.53-.11-.8-.15Z"/></clipPath><linearGradient id="Unbenannter_Verlauf_4-3" x1="2818.84" y1="1062.65" x2="2819.5" y2="1062.65" gradientTransform="matrix(-349.53, -63.48, -71.26, 392.4, 1061816.94, -237578.4)" xlink:href="#Unbenannter_Verlauf_4"/><clipPath id="clip-path-41"><rect class="cls-1" x="293.07" y="322.42" width="80.24" height="223.94" transform="translate(-205.38 532.65) rotate(-62.85)"/></clipPath><clipPath id="clip-path-42"><path class="cls-1" d="M215.25,419l222.94,42.74a8.33,8.33,0,0,0,2.95-16.38l-.4-.06Z"/></clipPath><linearGradient id="Unbenannter_Verlauf_4-4" x1="2818.26" y1="1062.33" x2="2818.92" y2="1062.33" gradientTransform="matrix(-351.11, -54.08, -60.71, 394.17, 1054462.77, -265872.32)" xlink:href="#Unbenannter_Verlauf_4"/></defs><circle class="cls-2" cx="148.66" cy="1235.23" r="7"/><circle class="cls-2" cx="1002.98" cy="39.5" r="3.5"/><circle class="cls-3" cx="1035.29" cy="1177.8" r="3.5"/><circle class="cls-2" cx="916.01" cy="95.25" r="8.5"/><circle class="cls-4" cx="757.2" cy="1185.87" r="5.5"/><circle class="cls-5" cx="394.7" cy="1186.21" r="8.41"/><circle class="cls-2" cx="517.61" cy="119.72" r="12"/><circle class="cls-2" cx="287.01" cy="101.7" r="6.5"/><g id="Ebene_2" data-name="Ebene 2"><g id="Layer_1" data-name="Layer 1"><ellipse id="circle21" class="cls-6" cx="804.81" cy="297.72" rx="2.52" ry="2.37"/><ellipse id="circle25" class="cls-6" cx="399.05" cy="877.21" rx="3.87" ry="3.64"/><ellipse id="circle31" class="cls-6" cx="305.91" cy="278.27" rx="3.95" ry="3.72"/><ellipse id="circle33" class="cls-6" cx="645.57" cy="497.09" rx="2.47" ry="2.32"/><ellipse id="circle35" class="cls-6" cx="114.2" cy="260.93" rx="3.22" ry="3.03"/><ellipse id="circle37" class="cls-6" cx="447.54" cy="816.57" rx="2.22" ry="2.09"/><ellipse id="circle43" class="cls-6" cx="938.96" cy="825.68" rx="1.11" ry="1.04"/><ellipse id="circle47" class="cls-6" cx="831.36" cy="799.63" rx="2.17" ry="2.05"/><ellipse id="circle49" class="cls-6" cx="202.74" cy="873.81" rx="1.01" ry="0.95"/><ellipse id="circle51" class="cls-6" cx="793.96" cy="377.91" rx="1.07" ry="1.01"/><ellipse id="circle55" class="cls-6" cx="271.86" cy="748.97" rx="1.46" ry="1.37"/><ellipse id="circle59" class="cls-6" cx="195.95" cy="959.83" rx="3" ry="2.82"/><ellipse id="circle61" class="cls-6" cx="710.79" cy="327.85" rx="3.66" ry="3.44"/><ellipse id="circle65" class="cls-6" cx="286.21" cy="586.61" rx="1.07" ry="1.01"/><ellipse id="circle67" class="cls-6" cx="946.01" cy="504.32" rx="2.01" ry="1.89"/><ellipse id="circle71" class="cls-6" cx="1257.73" cy="813.01" rx="3.4" ry="3.2"/><ellipse id="circle75" class="cls-6" cx="1122.78" cy="536.81" rx="1.1" ry="1.03"/><ellipse id="circle77" class="cls-6" cx="617.13" cy="342.64" rx="3.17" ry="2.98"/><ellipse id="circle79" class="cls-6" cx="613.8" cy="647.6" rx="1.28" ry="1.2"/><ellipse id="circle83" class="cls-6" cx="542.97" cy="788.06" rx="1.86" ry="1.75"/><ellipse id="circle85" class="cls-6" cx="516.31" cy="307.09" rx="1.58" ry="1.49"/><ellipse id="circle87" class="cls-6" cx="463.8" cy="741.06" rx="1.33" ry="1.25"/><ellipse id="circle89" class="cls-6" cx="776.17" cy="502.73" rx="2.96" ry="2.78"/><ellipse id="circle91" class="cls-6" cx="97.58" cy="952.76" rx="3.69" ry="3.48"/><ellipse id="circle97" class="cls-6" cx="485.24" cy="376.86" rx="2.91" ry="2.73"/><ellipse id="circle103" class="cls-6" cx="1258.37" cy="315.66" rx="2.09" ry="1.97"/><ellipse id="circle105" class="cls-6" cx="307.61" cy="887.44" rx="1.1" ry="1.03"/><ellipse id="circle107" class="cls-6" cx="666.48" cy="872.03" rx="1.47" ry="1.38"/><ellipse id="circle109" class="cls-6" cx="1034.73" cy="500.63" rx="1.03" ry="0.97"/><ellipse id="circle111" class="cls-6" cx="851.36" cy="253.61" rx="1.11" ry="1.05"/><ellipse id="circle115" class="cls-6" cx="935.17" cy="435.25" rx="2.22" ry="2.09"/><ellipse id="circle117" class="cls-6" cx="737.93" cy="250.25" rx="1.87" ry="1.76"/><ellipse id="circle121" class="cls-6" cx="491.5" cy="511.81" rx="1.91" ry="1.79"/><ellipse id="circle123" class="cls-6" cx="849.83" cy="511.93" rx="2.32" ry="2.19"/><ellipse id="circle125" class="cls-6" cx="637.67" cy="418.87" rx="2" ry="1.88"/><ellipse id="circle129" class="cls-6" cx="640.45" cy="577.15" rx="1.23" ry="1.16"/><ellipse id="circle131" class="cls-6" cx="388.4" cy="403.16" rx="1.52" ry="1.43"/><ellipse id="circle133" class="cls-6" cx="207.29" cy="407.76" rx="1.11" ry="1.04"/><ellipse id="circle137" class="cls-6" cx="334.76" cy="524.96" rx="2.03" ry="1.91"/><ellipse id="circle139" class="cls-6" cx="405.01" cy="248.62" rx="1.47" ry="1.38"/><ellipse id="circle141" class="cls-6" cx="632.82" cy="261.16" rx="1.18" ry="1.11"/><ellipse id="circle143" class="cls-6" cx="173.67" cy="526.5" rx="3.54" ry="3.33"/><ellipse id="circle145" class="cls-6" cx="399.42" cy="686.28" rx="1.09" ry="1.03"/><ellipse id="circle151" class="cls-6" cx="1098.48" cy="370.14" rx="3.46" ry="3.25"/><ellipse id="circle153" class="cls-6" cx="184.76" cy="754.48" rx="1.25" ry="1.18"/><ellipse id="circle155" class="cls-6" cx="934.54" cy="261.94" rx="1.79" ry="1.68"/><ellipse id="circle157" class="cls-6" cx="308.66" cy="431.04" rx="2.03" ry="1.91"/><ellipse id="circle159" class="cls-6" cx="1010.25" cy="881.08" rx="1.94" ry="1.83"/><ellipse id="circle169" class="cls-6" cx="452.65" cy="450.65" rx="1.89" ry="1.78"/><ellipse id="circle171" class="cls-6" cx="1056.84" cy="975.91" rx="1.35" ry="1.27"/><ellipse id="circle173" class="cls-6" cx="1175.59" cy="412.74" rx="2.55" ry="2.4"/><ellipse id="circle175" class="cls-6" cx="99.84" cy="793.33" rx="3.6" ry="3.38"/><ellipse id="circle179" class="cls-6" cx="103.86" cy="385.41" rx="2.17" ry="2.05"/><ellipse id="circle181" class="cls-6" cx="1181.97" cy="485.81" rx="1.12" ry="1.05"/><ellipse id="circle185" class="cls-6" cx="1260.28" cy="249.03" rx="2.75" ry="2.58"/><ellipse id="circle187" class="cls-6" cx="1042.46" cy="576.75" rx="3.05" ry="2.87"/><ellipse id="circle189" class="cls-6" cx="1077.17" cy="647.44" rx="1.43" ry="1.35"/><ellipse id="circle191" class="cls-6" cx="956.03" cy="717.03" rx="1.39" ry="1.31"/><ellipse id="circle193" class="cls-6" cx="357.16" cy="783.07" rx="1.65" ry="1.55"/><ellipse id="circle195" class="cls-6" cx="1159.13" cy="785.95" rx="3.33" ry="3.13"/><ellipse id="circle197" class="cls-6" cx="153.72" cy="327.02" rx="1.88" ry="1.77"/><ellipse id="circle203" class="cls-6" cx="311.43" cy="677.46" rx="3.35" ry="3.15"/><ellipse id="circle205" class="cls-6" cx="109.87" cy="868.57" rx="2.07" ry="1.95"/><ellipse id="circle209" class="cls-6" cx="1042.31" cy="719.19" rx="2.19" ry="2.06"/><ellipse id="circle213" class="cls-6" cx="144.98" cy="663.26" rx="3.74" ry="3.52"/><ellipse id="circle219" class="cls-6" cx="255.3" cy="490.31" rx="3.08" ry="2.89"/><ellipse id="circle221" class="cls-6" cx="1170.89" cy="867.71" rx="3.81" ry="3.58"/><ellipse id="circle223" class="cls-6" cx="838.22" cy="886.29" rx="1.37" ry="1.29"/><ellipse id="circle229" class="cls-6" cx="778.49" cy="981.07" rx="1.42" ry="1.33"/><ellipse id="circle233" class="cls-6" cx="859.47" cy="970.69" rx="3.68" ry="3.46"/><ellipse id="circle235" class="cls-6" cx="130.2" cy="454.5" rx="2.64" ry="2.48"/><ellipse id="circle241" class="cls-6" cx="1023.69" cy="787.12" rx="3.96" ry="3.73"/><ellipse id="circle243" class="cls-6" cx="615.08" cy="943.66" rx="1.7" ry="1.6"/><ellipse id="circle245" class="cls-6" cx="805.37" cy="644.65" rx="1.3" ry="1.23"/><ellipse id="circle247" class="cls-6" cx="296.9" cy="973.23" rx="1.11" ry="1.04"/><ellipse id="circle251" class="cls-6" cx="1258.28" cy="449.98" rx="2.83" ry="2.66"/><ellipse id="circle255" class="cls-6" cx="1086.82" cy="907.42" rx="1" ry="0.94"/><ellipse id="circle257" class="cls-6" cx="739.05" cy="795.41" rx="3.08" ry="2.9"/><ellipse id="circle261" class="cls-6" cx="406.82" cy="314.48" rx="1.35" ry="1.27"/><ellipse id="circle273" class="cls-6" cx="749.19" cy="891.34" rx="3.07" ry="2.89"/><ellipse id="circle275" class="cls-6" cx="539.1" cy="429.48" rx="2.48" ry="2.33"/><ellipse id="circle277" class="cls-6" cx="1072.36" cy="443.2" rx="1.01" ry="0.95"/><ellipse id="circle283" class="cls-6" cx="213.62" cy="262.38" rx="1.95" ry="1.84"/><ellipse id="circle287" class="cls-6" cx="523.39" cy="861.07" rx="1.19" ry="1.12"/><ellipse id="circle289" class="cls-6" cx="1087.16" cy="828.28" rx="1.96" ry="1.85"/><ellipse id="circle295" class="cls-6" cx="82.35" cy="698.37" rx="3.8" ry="3.58"/><ellipse id="circle301" class="cls-6" cx="1006.25" cy="389" rx="2.27" ry="2.14"/><ellipse id="circle309" class="cls-6" cx="242.67" cy="815.63" rx="3.81" ry="3.58"/><ellipse id="circle313" class="cls-6" cx="952.15" cy="577.48" rx="1.27" ry="1.19"/><ellipse id="circle315" class="cls-6" cx="924.13" cy="338.3" rx="1.75" ry="1.65"/><ellipse id="circle317" class="cls-6" cx="895.8" cy="754.64" rx="1.22" ry="1.14"/><ellipse id="circle319" class="cls-6" cx="23.19" cy="280.14" rx="2.68" ry="2.52"/><ellipse id="circle321" class="cls-6" cx="704.49" cy="964.84" rx="2.84" ry="2.67"/><ellipse id="circle325" class="cls-6" cx="986.34" cy="646.28" rx="3.27" ry="3.08"/><ellipse id="circle331" class="cls-6" cx="547.5" cy="570.94" rx="2.78" ry="2.62"/><ellipse id="circle333" class="cls-6" cx="711.68" cy="542.79" rx="1.17" ry="1.11"/><ellipse id="circle335" class="cls-6" cx="1163.08" cy="257.44" rx="1.08" ry="1.02"/><ellipse id="circle337" class="cls-6" cx="1070.26" cy="272.24" rx="1.57" ry="1.48"/><ellipse id="circle339" class="cls-6" cx="525.41" cy="693.5" rx="1.23" ry="1.15"/><ellipse id="circle345" class="cls-6" cx="1160.28" cy="713.64" rx="1.33" ry="1.25"/><ellipse id="circle347" class="cls-6" cx="731.52" cy="436.32" rx="1.02" ry="0.96"/><ellipse id="circle349" class="cls-6" cx="903.53" cy="652.95" rx="3.79" ry="3.58"/><ellipse id="circle351" class="cls-6" cx="862.91" cy="401.81" rx="1.04" ry="0.98"/><ellipse id="circle355" class="cls-6" cx="819.11" cy="713.8" rx="1.6" ry="1.5"/><ellipse id="circle357" class="cls-6" cx="1178.28" cy="334.02" rx="2.19" ry="2.06"/><ellipse id="circle359" class="cls-6" cx="527.52" cy="950.47" rx="1.49" ry="1.4"/><ellipse id="circle361" class="cls-6" cx="853.59" cy="588.16" rx="1.9" ry="1.79"/><ellipse id="circle363" class="cls-6" cx="207.6" cy="626.17" rx="3.82" ry="3.6"/><ellipse id="circle365" class="cls-6" cx="735" cy="612.12" rx="2.62" ry="2.46"/><ellipse id="circle377" class="cls-6" cx="1181.01" cy="614.76" rx="2.77" ry="2.61"/><ellipse id="circle379" class="cls-6" cx="421.26" cy="963.56" rx="1.6" ry="1.51"/><ellipse id="circle385" class="cls-6" cx="610.13" cy="734.68" rx="2.58" ry="2.43"/><ellipse id="circle387" class="cls-6" cx="401.44" cy="503.97" rx="2.41" ry="2.26"/><ellipse id="circle391" class="cls-6" cx="425.66" cy="585.46" rx="3.2" ry="3.02"/><ellipse id="circle397" class="cls-6" cx="1255.9" cy="542.3" rx="1.91" ry="1.8"/><ellipse id="circle399" class="cls-6" cx="530.07" cy="248.88" rx="2.48" ry="2.34"/><ellipse id="circle401" class="cls-6" cx="282.39" cy="353.19" rx="2.17" ry="2.05"/><ellipse id="circle403" class="cls-6" cx="1008.73" cy="309.17" rx="2.73" ry="2.56"/><ellipse id="circle405" class="cls-6" cx="629.53" cy="810.61" rx="3.87" ry="3.64"/><ellipse id="circle407" class="cls-6" cx="1183.68" cy="954.82" rx="1.79" ry="1.68"/><ellipse id="circle409" class="cls-6" cx="495.81" cy="630.22" rx="1.17" ry="1.11"/><ellipse id="circle411" class="cls-6" cx="70.85" cy="530.64" rx="3.64" ry="3.42"/><ellipse id="circle413" class="cls-6" cx="571.33" cy="497.99" rx="1.89" ry="1.79"/><ellipse id="circle415" class="cls-6" cx="709.01" cy="700.25" rx="1.38" ry="1.3"/><ellipse id="circle419" class="cls-6" cx="945.03" cy="940.93" rx="2.85" ry="2.68"/><g id="g28227" class="cls-7"><g id="g28233"><g id="g28247"><g class="cls-8"><g id="g28245" class="cls-9"><g id="g28243"><path id="path28241" class="cls-10" d="M119.22,554.28c5.69,0,5.7-8.84,0-8.84s-5.7,8.84,0,8.84"/></g></g></g></g></g><g id="g28249"><g id="g28263"><g class="cls-11"><g id="g28261" class="cls-9"><g id="g28259"><path id="path28257" class="cls-10" d="M137,480.46c5.69,0,5.7-8.84,0-8.84s-5.7,8.84,0,8.84"/></g></g></g></g></g><g id="g28265"><g id="g28279"><g class="cls-12"><g id="g28277" class="cls-9"><g id="g28275"><path id="path28273" class="cls-10" d="M213.41,539c5.69,0,5.7-8.84,0-8.84s-5.7,8.84,0,8.84"/></g></g></g></g></g><g id="g28281"><g id="g28295"><g class="cls-13"><g id="g28293" class="cls-9"><g id="g28291"><path id="path28289" class="cls-10" d="M460.33,577.19c5.69,0,5.7-8.84,0-8.84s-5.7,8.84,0,8.84"/></g></g></g></g></g><g id="g28297"><g id="g28311"><g class="cls-14"><g id="g28309" class="cls-9"><g id="g28307"><path id="path28305" class="cls-10" d="M760.71,544.1c5.68,0,5.69-8.84,0-8.84s-5.7,8.84,0,8.84"/></g></g></g></g></g><g id="g28313"><g id="g28327"><g class="cls-15"><g id="g28325" class="cls-9"><g id="g28323"><path id="path28321" class="cls-10" d="M595.25,488.1c5.69,0,5.7-8.84,0-8.84s-5.7,8.84,0,8.84"/></g></g></g></g></g><g id="g28329"><g id="g28343"><g class="cls-16"><g id="g28341" class="cls-9"><g id="g28339"><path id="path28337" class="cls-10" d="M310.15,477.92c5.68,0,5.69-8.84,0-8.84s-5.7,8.84,0,8.84"/></g></g></g></g></g><g id="g28345"><g id="g28359"><g class="cls-17"><g id="g28357" class="cls-9"><g id="g28355"><path id="path28353" class="cls-10" d="M241.41,681.56c5.69,0,5.7-8.84,0-8.84s-5.69,8.84,0,8.84"/></g></g></g></g></g><g id="g28361"><g id="g28375"><g class="cls-18"><g id="g28373" class="cls-9"><g id="g28371"><path id="path28369" class="cls-10" d="M93.76,633.2c5.7,0,5.7-8.84,0-8.84s-5.69,8.84,0,8.84"/></g></g></g></g></g><g id="g28377"><g id="g28391"><g class="cls-19"><g id="g28389" class="cls-9"><g id="g28387"><path id="path28385" class="cls-10" d="M335.6,661.2c5.68,0,5.7-8.84,0-8.84s-5.7,8.84,0,8.84"/></g></g></g></g></g><g id="g28393"><g id="g28407"><g class="cls-20"><g id="g28405" class="cls-9"><g id="g28403"><path id="path28401" class="cls-10" d="M643.62,689.2c5.69,0,5.69-8.84,0-8.84s-5.7,8.84,0,8.84"/></g></g></g></g></g><g id="g28409"><g id="g28423"><g class="cls-21"><g id="g28421" class="cls-9"><g id="g28419"><path id="path28417" class="cls-10" d="M842.17,625.56c5.69,0,5.7-8.84,0-8.84s-5.69,8.84,0,8.84"/></g></g></g></g></g><g id="g28425"><g id="g28439"><g class="cls-22"><g id="g28437" class="cls-9"><g id="g28435"><path id="path28433" class="cls-10" d="M1152.73,505.91c5.69,0,5.7-8.83,0-8.83s-5.69,8.83,0,8.83"/></g></g></g></g></g><g id="g28441"><g id="g28455"><g class="cls-23"><g id="g28453" class="cls-9"><g id="g28451"><path id="path28449" class="cls-10" d="M1162.92,709.57c5.68,0,5.69-8.85,0-8.85s-5.7,8.85,0,8.85"/></g></g></g></g></g><g id="g28457"><g id="g28471"><g class="cls-24"><g id="g28469" class="cls-9"><g id="g28467"><path id="path28465" class="cls-10" d="M903.27,831.76c5.68,0,5.69-8.84,0-8.84s-5.7,8.84,0,8.84"/></g></g></g></g></g><g id="g28473"><g id="g28487"><g class="cls-25"><g id="g28485" class="cls-9"><g id="g28483"><path id="path28481" class="cls-10" d="M699.62,760.48c5.69,0,5.69-8.84,0-8.84s-5.7,8.84,0,8.84"/></g></g></g></g></g><g id="g28489"><g id="g28503"><g class="cls-26"><g id="g28501" class="cls-9"><g id="g28499"><path id="path28497" class="cls-10" d="M1084,612.83c5.69,0,5.7-8.84,0-8.84s-5.69,8.84,0,8.84"/></g></g></g></g></g><g id="g28505"><g id="g28519"><g class="cls-27"><g id="g28517" class="cls-9"><g id="g28515"><path id="path28513" class="cls-10" d="M923.63,505.91c5.69,0,5.7-8.83,0-8.83s-5.7,8.83,0,8.83"/></g></g></g></g></g><g id="g28521"><g id="g28535"><g class="cls-28"><g id="g28533" class="cls-9"><g id="g28531"><path id="path28529" class="cls-10" d="M966.91,714.66c5.68,0,5.69-8.84,0-8.84s-5.7,8.84,0,8.84"/></g></g></g></g></g><g id="g28537"><g id="g28551"><g class="cls-29"><g id="g28549" class="cls-9"><g id="g28547"><path id="path28545" class="cls-10" d="M786.17,920.85c5.69,0,5.7-8.84,0-8.84s-5.7,8.84,0,8.84"/></g></g></g></g></g><g id="g28553"><g id="g28567"><g class="cls-30"><g id="g28565" class="cls-9"><g id="g28563"><path id="path28561" class="cls-10" d="M699.62,971.77c5.69,0,5.69-8.84,0-8.84s-5.7,8.84,0,8.84"/></g></g></g></g></g><g id="g28569"><g id="g28583"><g class="cls-31"><g id="g28581" class="cls-9"><g id="g28579"><path id="path28577" class="cls-10" d="M1249.47,867.38c5.69,0,5.7-8.84,0-8.84s-5.69,8.84,0,8.84"/></g></g></g></g></g><g id="g28665"><g id="g28679"><g class="cls-32"><g id="g28677" class="cls-9"><g id="g28675"><path id="path28673" class="cls-10" d="M1112,829.21c5.68,0,5.69-8.84,0-8.84s-5.71,8.84,0,8.84"/></g></g></g></g></g><g id="g28681"><g id="g28695"><g class="cls-33"><g id="g28693" class="cls-9"><g id="g28691"><path id="path28689" class="cls-10" d="M1002.55,915.75c5.68,0,5.69-8.83,0-8.83s-5.7,8.83,0,8.83"/></g></g></g></g></g><g id="g28697"><g id="g28711"><g class="cls-34"><g id="g28709" class="cls-9"><g id="g28707"><path id="path28705" class="cls-10" d="M1180.74,953.94c5.68,0,5.69-8.84,0-8.84s-5.7,8.84,0,8.84"/></g></g></g></g></g><g id="g28713"><g id="g28727"><g class="cls-35"><g id="g28725" class="cls-9"><g id="g28723"><path id="path28721" class="cls-10" d="M1015.27,505.91c5.69,0,5.7-8.83,0-8.83s-5.69,8.83,0,8.83"/></g></g></g></g></g><g id="g28729"><g id="g28743"><g class="cls-36"><g id="g28741" class="cls-9"><g id="g28739"><path id="path28737" class="cls-10" d="M564.7,638.29c5.69,0,5.7-8.84,0-8.84s-5.7,8.84,0,8.84"/></g></g></g></g></g><g id="g28745"><g id="g28759"><g class="cls-37"><g id="g28757" class="cls-9"><g id="g28755"><path id="path28753" class="cls-10" d="M437.42,727.39c5.69,0,5.7-8.85,0-8.85s-5.7,8.85,0,8.85"/></g></g></g></g></g><g id="g28761"><g id="g28775"><g class="cls-38"><g id="g28773" class="cls-9"><g id="g28771"><path id="path28769" class="cls-10" d="M190.5,638.29c5.69,0,5.7-8.84,0-8.84s-5.7,8.84,0,8.84"/></g></g></g></g></g><g id="g28777"><g id="g28791"><g class="cls-39"><g id="g28789" class="cls-9"><g id="g28787"><path id="path28785" class="cls-10" d="M91.24,709.57c5.68,0,5.69-8.85,0-8.85s-5.71,8.85,0,8.85"/></g></g></g></g></g><g id="g28793"><g id="g28807"><g class="cls-40"><g id="g28805" class="cls-9"><g id="g28803"><path id="path28801" class="cls-10" d="M414.51,521.19c5.69,0,5.7-8.84,0-8.84s-5.69,8.84,0,8.84"/></g></g></g></g></g><g id="g28809"><g id="g28823"><g class="cls-41"><g id="g28821" class="cls-9"><g id="g28819"><path id="path28817" class="cls-10" d="M877.83,931.05c5.69,0,5.7-8.84,0-8.84s-5.69,8.84,0,8.84"/></g></g></g></g></g><g id="g28825"><g id="g28839"><g class="cls-42"><g id="g28837" class="cls-9"><g id="g28835"><path id="path28833" class="cls-10" d="M816.71,691.75c5.69,0,5.7-8.84,0-8.84s-5.69,8.84,0,8.84"/></g></g></g></g></g><g id="g28841"><g id="g28855"><g class="cls-43"><g id="g28853" class="cls-9"><g id="g28851"><path id="path28849" class="cls-10" d="M615.62,579.74c5.68,0,5.69-8.84,0-8.84s-5.7,8.84,0,8.84"/></g></g></g></g></g><g id="g28873"><g id="g28933"><g class="cls-44"><g id="g28931" class="cls-45"><g id="g28929"><g class="cls-46"><g id="g28927"><g id="g28925"><g id="g28923"><g id="g28921"><path id="path28919" class="cls-47" d="M828.55,515.36l216.85,67.18a8.33,8.33,0,0,0,5.25-15.81l-.22-.07c-.23-.07-.46-.14-.69-.19Z"/></g></g></g></g></g></g></g></g></g></g><g id="g28935"><g id="g28995"><g class="cls-48"><g id="g28993" class="cls-45"><g id="g28991"><g class="cls-49"><g id="g28989"><g id="g28987"><g id="g28985"><g id="g28983"><path id="path28981" class="cls-50" d="M822,539.44l223,42.77a8.33,8.33,0,0,0,2.93-16.4l-.4-.06Z"/></g></g></g></g></g></g></g></g></g></g><g id="g28997"><g id="g29057"><g class="cls-51"><g id="g29055" class="cls-45"><g id="g29053"><g class="cls-52"><g id="g29051"><g id="g29049"><g id="g29047"><g id="g29045"><path id="path29043" class="cls-53" d="M591.18,422.67,812.91,471.4a8.33,8.33,0,1,0,3.79-16.22h0c-.27-.06-.53-.11-.8-.15Z"/></g></g></g></g></g></g></g></g></g></g><g id="g30288"><g id="g30286"><g class="cls-54"><g id="g30284" class="cls-45"><g id="g30282"><g class="cls-55"><g id="g30280"><g id="g30278"><g id="g30276"><g id="g30274"><path id="path30272" class="cls-56" d="M215.25,419l222.94,42.74a8.33,8.33,0,0,0,2.95-16.38l-.4-.06Z"/></g></g></g></g></g></g></g></g></g></g></g></g></g></svg>