<svg id="Ebene_1" data-name="Ebene 1" xmlns="http://www.w3.org/2000/svg" xmlns:xlink="http://www.w3.org/1999/xlink" viewBox="0 0 3095.39 1894.69"><defs><style>.cls-1{fill:none;}.cls-2,.cls-6{fill:#fff;}.cls-2,.cls-3{opacity:0.1;}.cls-2{isolation:isolate;}.cls-4{clip-path:url(#clip-path);}.cls-5{opacity:0.61;}.cls-7{clip-path:url(#clip-path-2);}.cls-8{clip-path:url(#clip-path-3);}.cls-9{clip-path:url(#clip-path-4);}.cls-10{clip-path:url(#clip-path-5);}.cls-11{clip-path:url(#clip-path-6);}.cls-12{clip-path:url(#clip-path-7);}.cls-13{clip-path:url(#clip-path-8);}.cls-14{clip-path:url(#clip-path-9);}.cls-15{clip-path:url(#clip-path-10);}.cls-16{clip-path:url(#clip-path-11);}.cls-17{clip-path:url(#clip-path-12);}.cls-18{clip-path:url(#clip-path-13);}.cls-19{clip-path:url(#clip-path-14);}.cls-20{clip-path:url(#clip-path-15);}.cls-21{clip-path:url(#clip-path-16);}.cls-22{clip-path:url(#clip-path-17);}.cls-23{clip-path:url(#clip-path-18);}.cls-24{clip-path:url(#clip-path-19);}.cls-25{clip-path:url(#clip-path-20);}.cls-26{clip-path:url(#clip-path-21);}.cls-27{clip-path:url(#clip-path-22);}.cls-28{clip-path:url(#clip-path-23);}.cls-29{clip-path:url(#clip-path-24);}.cls-30{clip-path:url(#clip-path-25);}.cls-31{clip-path:url(#clip-path-26);}.cls-32{clip-path:url(#clip-path-27);}.cls-33{clip-path:url(#clip-path-28);}.cls-34{clip-path:url(#clip-path-29);}.cls-35{clip-path:url(#clip-path-30);}.cls-36{clip-path:url(#clip-path-31);}.cls-37{clip-path:url(#clip-path-32);}.cls-38{clip-path:url(#clip-path-33);}.cls-39{clip-path:url(#clip-path-34);}.cls-40{clip-path:url(#clip-path-35);}.cls-41{opacity:0.57;}.cls-42{clip-path:url(#clip-path-36);}.cls-43{fill:url(#Unbenannter_Verlauf_2);}.cls-44{clip-path:url(#clip-path-37);}.cls-45{clip-path:url(#clip-path-38);}.cls-46{fill:url(#Unbenannter_Verlauf_3);}.cls-47{clip-path:url(#clip-path-39);}.cls-48{clip-path:url(#clip-path-40);}.cls-49{fill:url(#Unbenannter_Verlauf_4);}.cls-50{clip-path:url(#clip-path-41);}.cls-51{clip-path:url(#clip-path-42);}.cls-52{fill:url(#Unbenannter_Verlauf_5);}</style><clipPath id="clip-path"><rect class="cls-1" x="223.43" y="783.89" width="21.37" height="22.13"/></clipPath><clipPath id="clip-path-2"><rect class="cls-1" x="268.04" y="599.08" width="21.37" height="22.13"/></clipPath><clipPath id="clip-path-3"><rect class="cls-1" x="459.21" y="745.65" width="21.37" height="22.13"/></clipPath><clipPath id="clip-path-4"><rect class="cls-1" x="1077.36" y="841.24" width="21.37" height="22.13"/></clipPath><clipPath id="clip-path-5"><rect class="cls-1" x="1829.33" y="758.4" width="21.37" height="22.13"/></clipPath><clipPath id="clip-path-6"><rect class="cls-1" x="1415.11" y="618.2" width="21.37" height="22.13"/></clipPath><clipPath id="clip-path-7"><rect class="cls-1" x="701.38" y="592.71" width="21.37" height="22.13"/></clipPath><clipPath id="clip-path-8"><rect class="cls-1" x="529.31" y="1102.52" width="21.37" height="22.13"/></clipPath><clipPath id="clip-path-9"><rect class="cls-1" x="159.7" y="981.44" width="21.37" height="22.13"/></clipPath><clipPath id="clip-path-10"><rect class="cls-1" x="765.1" y="1051.54" width="21.37" height="22.13"/></clipPath><clipPath id="clip-path-11"><rect class="cls-1" x="1536.19" y="1121.64" width="21.37" height="22.13"/></clipPath><clipPath id="clip-path-12"><rect class="cls-1" x="2033.25" y="962.33" width="21.37" height="22.13"/></clipPath><clipPath id="clip-path-13"><rect class="cls-1" x="2810.71" y="662.81" width="21.37" height="22.13"/></clipPath><clipPath id="clip-path-14"><rect class="cls-1" x="2836.2" y="1172.62" width="21.37" height="22.13"/></clipPath><clipPath id="clip-path-15"><rect class="cls-1" x="2186.2" y="1478.51" width="21.37" height="22.13"/></clipPath><clipPath id="clip-path-16"><rect class="cls-1" x="1676.38" y="1300.07" width="21.37" height="22.13"/></clipPath><clipPath id="clip-path-17"><rect class="cls-1" x="2638.65" y="930.46" width="21.37" height="22.13"/></clipPath><clipPath id="clip-path-18"><rect class="cls-1" x="2237.18" y="662.81" width="21.37" height="22.13"/></clipPath><clipPath id="clip-path-19"><rect class="cls-1" x="2345.51" y="1185.37" width="21.37" height="22.13"/></clipPath><clipPath id="clip-path-20"><rect class="cls-1" x="1893.06" y="1701.54" width="21.37" height="22.13"/></clipPath><clipPath id="clip-path-21"><rect class="cls-1" x="1676.38" y="1829" width="21.37" height="22.13"/></clipPath><clipPath id="clip-path-22"><rect class="cls-1" x="3052.88" y="1567.73" width="21.37" height="22.13"/></clipPath><clipPath id="clip-path-23"><rect class="cls-1" x="2708.75" y="1472.13" width="21.37" height="22.13"/></clipPath><clipPath id="clip-path-24"><rect class="cls-1" x="2434.73" y="1688.8" width="21.37" height="22.13"/></clipPath><clipPath id="clip-path-25"><rect class="cls-1" x="2880.81" y="1784.39" width="21.37" height="22.13"/></clipPath><clipPath id="clip-path-26"><rect class="cls-1" x="2466.6" y="662.81" width="21.37" height="22.13"/></clipPath><clipPath id="clip-path-27"><rect class="cls-1" x="1338.63" y="994.19" width="21.37" height="22.13"/></clipPath><clipPath id="clip-path-28"><rect class="cls-1" x="1020.01" y="1217.22" width="21.37" height="22.13"/></clipPath><clipPath id="clip-path-29"><rect class="cls-1" x="401.86" y="994.19" width="21.37" height="22.13"/></clipPath><clipPath id="clip-path-30"><rect class="cls-1" x="153.33" y="1172.62" width="21.37" height="22.13"/></clipPath><clipPath id="clip-path-31"><rect class="cls-1" x="962.65" y="701.05" width="21.37" height="22.13"/></clipPath><clipPath id="clip-path-32"><rect class="cls-1" x="2122.47" y="1727.04" width="21.37" height="22.13"/></clipPath><clipPath id="clip-path-33"><rect class="cls-1" x="1969.52" y="1128.02" width="21.37" height="22.13"/></clipPath><clipPath id="clip-path-34"><rect class="cls-1" x="1466.08" y="847.62" width="21.37" height="22.13"/></clipPath><clipPath id="clip-path-35"><rect class="cls-1" x="2198.73" y="499.42" width="200.87" height="560.63" transform="translate(379.71 2266.28) rotate(-56.49)"/></clipPath><clipPath id="clip-path-36"><path class="cls-1" d="M2009.85,708.58l542.86,168.17A20.85,20.85,0,1,0,2565.3,837c-.58-.18-1.16-.34-1.74-.47Z"/></clipPath><linearGradient id="Unbenannter_Verlauf_2" x1="2600.19" y1="1.92" x2="2601.85" y2="1.92" gradientTransform="matrix(-342.96, -92.61, 103.97, -385.02, 894139.34, 242406.26)" gradientUnits="userSpaceOnUse"><stop offset="0" stop-color="#fff"/><stop offset="0.47" stop-color="#fff"/><stop offset="1" stop-color="#f4f7f9"/></linearGradient><clipPath id="clip-path-37"><rect class="cls-1" x="2188.09" y="527.09" width="200.87" height="560.62" transform="translate(525.79 2475.33) rotate(-62.85)"/></clipPath><clipPath id="clip-path-38"><path class="cls-1" d="M1993.33,768.87l558.14,107.06a20.85,20.85,0,0,0,7.33-41.06l-1-.15Z"/></clipPath><linearGradient id="Unbenannter_Verlauf_3" x1="2600.1" y1="2.52" x2="2601.76" y2="2.52" gradientTransform="matrix(-351.11, -54.08, 60.71, -394.17, 915346.4, 142467.5)" xlink:href="#Unbenannter_Verlauf_2"/><clipPath id="clip-path-39"><rect class="cls-1" x="1609.36" y="242.74" width="200.87" height="560.62" transform="translate(430.14 1771.84) rotate(-61.31)"/></clipPath><clipPath id="clip-path-40"><path class="cls-1" d="M1415.61,476.53l555.07,122a20.85,20.85,0,1,0,9.5-40.61c-.67-.15-1.34-.28-2-.37Z"/></clipPath><linearGradient id="Unbenannter_Verlauf_4" x1="2600.82" y1="2.55" x2="2602.48" y2="2.55" gradientTransform="matrix(-349.53, -63.48, 71.26, -392.4, 910883.55, 166682.36)" xlink:href="#Unbenannter_Verlauf_2"/><clipPath id="clip-path-41"><rect class="cls-1" x="669.31" y="225.58" width="200.87" height="560.62" transform="translate(-31.65 959.97) rotate(-62.85)"/></clipPath><clipPath id="clip-path-42"><path class="cls-1" d="M474.5,467.35l558.11,107a20.85,20.85,0,0,0,7.39-41c-.35-.06-.7-.12-1-.16Z"/></clipPath><linearGradient id="Unbenannter_Verlauf_5" x1="2601.83" y1="2.59" x2="2603.49" y2="2.59" gradientTransform="matrix(-351.11, -54.08, 60.71, -394.17, 914431.18, 142285.81)" xlink:href="#Unbenannter_Verlauf_2"/></defs><g id="Ebene_2" data-name="Ebene 2"><g id="Layer_1" data-name="Layer 1"><ellipse id="circle21" class="cls-2" cx="1950.42" cy="163.74" rx="6.3" ry="5.93"/><ellipse id="circle25" class="cls-2" cx="934.62" cy="1614.44" rx="9.69" ry="9.12"/><ellipse id="circle31" class="cls-2" cx="701.46" cy="115.05" rx="9.9" ry="9.31"/><ellipse id="circle33" class="cls-2" cx="1551.76" cy="662.83" rx="6.19" ry="5.82"/><ellipse id="circle35" class="cls-2" cx="221.53" cy="71.64" rx="8.06" ry="7.58"/><ellipse id="circle37" class="cls-2" cx="1056.01" cy="1462.63" rx="5.56" ry="5.24"/><ellipse id="circle43" class="cls-2" cx="2286.25" cy="1485.42" rx="2.77" ry="2.6"/><ellipse id="circle47" class="cls-2" cx="2016.88" cy="1420.21" rx="5.43" ry="5.12"/><ellipse id="circle49" class="cls-2" cx="443.19" cy="1605.92" rx="2.53" ry="2.37"/><ellipse id="circle51" class="cls-2" cx="1923.24" cy="364.49" rx="2.69" ry="2.53"/><ellipse id="circle55" class="cls-2" cx="616.22" cy="1293.39" rx="3.65" ry="3.44"/><ellipse id="circle59" class="cls-2" cx="426.19" cy="1821.26" rx="7.51" ry="7.07"/><ellipse id="circle61" class="cls-2" cx="1715.03" cy="239.16" rx="9.15" ry="8.61"/><ellipse id="circle65" class="cls-2" cx="652.16" cy="886.94" rx="2.69" ry="2.54"/><ellipse id="circle67" class="cls-2" cx="2303.9" cy="680.93" rx="5.02" ry="4.73"/><ellipse id="circle71" class="cls-2" cx="3084.24" cy="1453.7" rx="8.52" ry="8.02"/><ellipse id="circle75" class="cls-2" cx="2746.42" cy="762.28" rx="2.75" ry="2.59"/><ellipse id="circle77" class="cls-2" cx="1480.56" cy="276.19" rx="7.94" ry="7.46"/><ellipse id="circle79" class="cls-2" cx="1472.24" cy="1039.63" rx="3.2" ry="3.01"/><ellipse id="circle83" class="cls-2" cx="1294.92" cy="1391.26" rx="4.65" ry="4.38"/><ellipse id="circle85" class="cls-2" cx="1228.17" cy="187.2" rx="3.95" ry="3.72"/><ellipse id="circle87" class="cls-2" cx="1096.72" cy="1273.6" rx="3.33" ry="3.13"/><ellipse id="circle89" class="cls-2" cx="1878.71" cy="676.97" rx="7.42" ry="6.97"/><ellipse id="circle91" class="cls-2" cx="179.94" cy="1803.57" rx="9.25" ry="8.7"/><ellipse id="circle97" class="cls-2" cx="1150.41" cy="361.86" rx="7.28" ry="6.84"/><ellipse id="circle103" class="cls-2" cx="3085.86" cy="208.64" rx="5.24" ry="4.92"/><ellipse id="circle105" class="cls-2" cx="705.73" cy="1640.03" rx="2.75" ry="2.58"/><ellipse id="circle107" class="cls-2" cx="1604.11" cy="1601.47" rx="3.68" ry="3.46"/><ellipse id="circle109" class="cls-2" cx="2525.98" cy="671.69" rx="2.57" ry="2.42"/><ellipse id="circle111" class="cls-2" cx="2066.94" cy="53.31" rx="2.79" ry="2.62"/><ellipse id="circle115" class="cls-2" cx="2276.76" cy="508.03" rx="5.56" ry="5.23"/><ellipse id="circle117" class="cls-2" cx="1782.99" cy="44.91" rx="4.68" ry="4.41"/><ellipse id="circle121" class="cls-2" cx="1166.08" cy="699.68" rx="4.77" ry="4.49"/><ellipse id="circle123" class="cls-2" cx="2063.1" cy="699.99" rx="5.82" ry="5.48"/><ellipse id="circle125" class="cls-2" cx="1531.99" cy="467.03" rx="5" ry="4.71"/><ellipse id="circle129" class="cls-2" cx="1538.94" cy="863.26" rx="3.08" ry="2.9"/><ellipse id="circle131" class="cls-2" cx="907.97" cy="427.69" rx="3.8" ry="3.57"/><ellipse id="circle133" class="cls-2" cx="454.58" cy="439.22" rx="2.77" ry="2.6"/><ellipse id="circle137" class="cls-2" cx="773.69" cy="732.61" rx="5.09" ry="4.78"/><ellipse id="circle139" class="cls-2" cx="949.54" cy="40.81" rx="3.67" ry="3.45"/><ellipse id="circle141" class="cls-2" cx="1519.84" cy="72.21" rx="2.95" ry="2.78"/><ellipse id="circle143" class="cls-2" cx="370.42" cy="736.46" rx="8.85" ry="8.33"/><ellipse id="circle145" class="cls-2" cx="935.55" cy="1136.45" rx="2.73" ry="2.57"/><ellipse id="circle151" class="cls-2" cx="2685.58" cy="345.03" rx="8.65" ry="8.14"/><ellipse id="circle153" class="cls-2" cx="398.18" cy="1307.19" rx="3.14" ry="2.96"/><ellipse id="circle155" class="cls-2" cx="2275.18" cy="74.17" rx="4.47" ry="4.21"/><ellipse id="circle157" class="cls-2" cx="708.36" cy="497.49" rx="5.09" ry="4.78"/><ellipse id="circle159" class="cls-2" cx="2464.71" cy="1624.12" rx="4.86" ry="4.57"/><ellipse id="circle169" class="cls-2" cx="1068.82" cy="546.57" rx="4.72" ry="4.45"/><ellipse id="circle171" class="cls-2" cx="2581.35" cy="1861.51" rx="3.38" ry="3.19"/><ellipse id="circle173" class="cls-2" cx="2878.62" cy="451.68" rx="6.39" ry="6.01"/><ellipse id="circle175" class="cls-2" cx="185.58" cy="1404.44" rx="9" ry="8.47"/><ellipse id="circle179" class="cls-2" cx="195.65" cy="383.26" rx="5.44" ry="5.12"/><ellipse id="circle181" class="cls-2" cx="2894.58" cy="634.6" rx="2.8" ry="2.63"/><ellipse id="circle185" class="cls-2" cx="3090.62" cy="41.86" rx="6.89" ry="6.47"/><ellipse id="circle187" class="cls-2" cx="2545.35" cy="862.25" rx="7.64" ry="7.19"/><ellipse id="circle189" class="cls-2" cx="2632.23" cy="1039.22" rx="3.59" ry="3.37"/><ellipse id="circle191" class="cls-2" cx="2328.97" cy="1213.43" rx="3.48" ry="3.27"/><ellipse id="circle193" class="cls-2" cx="829.77" cy="1378.76" rx="4.12" ry="3.87"/><ellipse id="circle195" class="cls-2" cx="2837.41" cy="1385.98" rx="8.34" ry="7.84"/><ellipse id="circle197" class="cls-2" cx="320.47" cy="237.08" rx="4.71" ry="4.43"/><ellipse id="circle203" class="cls-2" cx="715.28" cy="1114.37" rx="8.39" ry="7.89"/><ellipse id="circle205" class="cls-2" cx="210.69" cy="1592.79" rx="5.19" ry="4.89"/><ellipse id="circle209" class="cls-2" cx="2544.96" cy="1218.84" rx="5.49" ry="5.16"/><ellipse id="circle213" class="cls-2" cx="298.59" cy="1078.83" rx="9.36" ry="8.8"/><ellipse id="circle219" class="cls-2" cx="574.78" cy="645.86" rx="7.71" ry="7.24"/><ellipse id="circle221" class="cls-2" cx="2866.85" cy="1590.65" rx="9.54" ry="8.97"/><ellipse id="circle223" class="cls-2" cx="2034.04" cy="1637.15" rx="3.44" ry="3.23"/><ellipse id="circle229" class="cls-2" cx="1884.52" cy="1874.44" rx="3.55" ry="3.34"/><ellipse id="circle233" class="cls-2" cx="2087.25" cy="1848.44" rx="9.22" ry="8.67"/><ellipse id="circle235" class="cls-2" cx="261.6" cy="556.23" rx="6.6" ry="6.21"/><ellipse id="circle241" class="cls-2" cx="2498.34" cy="1388.89" rx="9.91" ry="9.33"/><ellipse id="circle243" class="cls-2" cx="1475.45" cy="1780.78" rx="4.25" ry="4"/><ellipse id="circle245" class="cls-2" cx="1951.8" cy="1032.25" rx="3.25" ry="3.07"/><ellipse id="circle247" class="cls-2" cx="678.9" cy="1854.81" rx="2.78" ry="2.6"/><ellipse id="circle251" class="cls-2" cx="3085.62" cy="544.91" rx="7.09" ry="6.67"/><ellipse id="circle255" class="cls-2" cx="2656.38" cy="1690.05" rx="2.5" ry="2.36"/><ellipse id="circle257" class="cls-2" cx="1785.79" cy="1409.64" rx="7.71" ry="7.25"/><ellipse id="circle261" class="cls-2" cx="954.09" cy="205.69" rx="3.38" ry="3.18"/><ellipse id="circle273" class="cls-2" cx="1811.17" cy="1649.81" rx="7.69" ry="7.23"/><ellipse id="circle275" class="cls-2" cx="1285.24" cy="493.59" rx="6.2" ry="5.83"/><ellipse id="circle277" class="cls-2" cx="2620.18" cy="527.94" rx="2.52" ry="2.37"/><ellipse id="circle283" class="cls-2" cx="470.43" cy="75.28" rx="4.88" ry="4.6"/><ellipse id="circle287" class="cls-2" cx="1245.9" cy="1574.02" rx="2.97" ry="2.8"/><ellipse id="circle289" class="cls-2" cx="2657.24" cy="1491.94" rx="4.9" ry="4.62"/><ellipse id="circle295" class="cls-2" cx="141.8" cy="1166.73" rx="9.51" ry="8.95"/><ellipse id="circle301" class="cls-2" cx="2454.7" cy="392.26" rx="5.69" ry="5.36"/><ellipse id="circle309" class="cls-2" cx="543.16" cy="1460.26" rx="9.53" ry="8.97"/><ellipse id="circle313" class="cls-2" cx="2319.27" cy="864.08" rx="3.17" ry="2.98"/><ellipse id="circle315" class="cls-2" cx="2249.11" cy="265.32" rx="4.38" ry="4.12"/><ellipse id="circle317" class="cls-2" cx="2178.19" cy="1307.6" rx="3.05" ry="2.86"/><ellipse id="circle319" class="cls-2" cx="-6.29" cy="119.74" rx="6.7" ry="6.3"/><ellipse id="circle321" class="cls-2" cx="1699.27" cy="1833.81" rx="7.11" ry="6.69"/><ellipse id="circle325" class="cls-2" cx="2404.85" cy="1036.32" rx="8.19" ry="7.7"/><ellipse id="circle331" class="cls-2" cx="1306.27" cy="847.71" rx="6.97" ry="6.56"/><ellipse id="circle333" class="cls-2" cx="1717.27" cy="777.25" rx="2.94" ry="2.77"/><ellipse id="circle335" class="cls-2" cx="2847.31" cy="62.89" rx="2.71" ry="2.55"/><ellipse id="circle337" class="cls-2" cx="2614.93" cy="99.94" rx="3.94" ry="3.71"/><ellipse id="circle339" class="cls-2" cx="1250.95" cy="1154.54" rx="3.07" ry="2.88"/><ellipse id="circle345" class="cls-2" cx="2840.29" cy="1204.95" rx="3.34" ry="3.14"/><ellipse id="circle347" class="cls-2" cx="1766.94" cy="510.72" rx="2.56" ry="2.41"/><ellipse id="circle349" class="cls-2" cx="2197.55" cy="1053.02" rx="9.5" ry="8.95"/><ellipse id="circle351" class="cls-2" cx="2095.85" cy="424.32" rx="2.61" ry="2.46"/><ellipse id="circle355" class="cls-2" cx="1986.22" cy="1205.34" rx="4" ry="3.76"/><ellipse id="circle357" class="cls-2" cx="2885.35" cy="254.6" rx="5.49" ry="5.16"/><ellipse id="circle359" class="cls-2" cx="1256.24" cy="1797.82" rx="3.72" ry="3.5"/><ellipse id="circle361" class="cls-2" cx="2072.52" cy="890.82" rx="4.75" ry="4.47"/><ellipse id="circle363" class="cls-2" cx="455.35" cy="985.98" rx="9.56" ry="9"/><ellipse id="circle365" class="cls-2" cx="1775.65" cy="950.8" rx="6.55" ry="6.16"/><ellipse id="circle377" class="cls-2" cx="2892.19" cy="957.42" rx="6.94" ry="6.53"/><ellipse id="circle379" class="cls-2" cx="990.24" cy="1830.59" rx="4" ry="3.77"/><ellipse id="circle385" class="cls-2" cx="1463.04" cy="1257.62" rx="6.46" ry="6.08"/><ellipse id="circle387" class="cls-2" cx="940.61" cy="680.07" rx="6.03" ry="5.67"/><ellipse id="circle391" class="cls-2" cx="1001.24" cy="884.06" rx="8.02" ry="7.55"/><ellipse id="circle397" class="cls-2" cx="3079.66" cy="776.03" rx="4.79" ry="4.5"/><ellipse id="circle399" class="cls-2" cx="1262.62" cy="41.46" rx="6.22" ry="5.86"/><ellipse id="circle401" class="cls-2" cx="642.59" cy="302.59" rx="5.43" ry="5.12"/><ellipse id="circle403" class="cls-2" cx="2460.9" cy="192.4" rx="6.83" ry="6.42"/><ellipse id="circle405" class="cls-2" cx="1511.61" cy="1447.71" rx="9.69" ry="9.12"/><ellipse id="circle407" class="cls-2" cx="2898.88" cy="1808.72" rx="4.47" ry="4.21"/><ellipse id="circle409" class="cls-2" cx="1176.87" cy="996.12" rx="2.94" ry="2.77"/><ellipse id="circle411" class="cls-2" cx="113.01" cy="746.82" rx="9.11" ry="8.57"/><ellipse id="circle413" class="cls-2" cx="1365.91" cy="665.1" rx="4.74" ry="4.47"/><ellipse id="circle415" class="cls-2" cx="1710.58" cy="1171.42" rx="3.46" ry="3.25"/><ellipse id="circle419" class="cls-2" cx="2301.43" cy="1773.94" rx="7.14" ry="6.71"/><g id="g28227" class="cls-3"><g id="g28233"><g id="g28247"><g class="cls-4"><g id="g28245" class="cls-5"><g id="g28243"><path id="path28241" class="cls-6" d="M234.11,806c14.24,0,14.26-22.13,0-22.13s-14.26,22.13,0,22.13"/></g></g></g></g></g><g id="g28249"><g id="g28263"><g class="cls-7"><g id="g28261" class="cls-5"><g id="g28259"><path id="path28257" class="cls-6" d="M278.72,621.22c14.24,0,14.26-22.14,0-22.14s-14.26,22.14,0,22.14"/></g></g></g></g></g><g id="g28265"><g id="g28279"><g class="cls-8"><g id="g28277" class="cls-5"><g id="g28275"><path id="path28273" class="cls-6" d="M469.9,767.78c14.24,0,14.26-22.13,0-22.13s-14.26,22.13,0,22.13"/></g></g></g></g></g><g id="g28281"><g id="g28295"><g class="cls-9"><g id="g28293" class="cls-5"><g id="g28291"><path id="path28289" class="cls-6" d="M1088.05,863.37c14.24,0,14.26-22.13,0-22.13s-14.27,22.13,0,22.13"/></g></g></g></g></g><g id="g28297"><g id="g28311"><g class="cls-10"><g id="g28309" class="cls-5"><g id="g28307"><path id="path28305" class="cls-6" d="M1840,780.53c14.24,0,14.26-22.13,0-22.13s-14.26,22.13,0,22.13"/></g></g></g></g></g><g id="g28313"><g id="g28327"><g class="cls-11"><g id="g28325" class="cls-5"><g id="g28323"><path id="path28321" class="cls-6" d="M1425.79,640.33c14.25,0,14.27-22.13,0-22.13s-14.26,22.13,0,22.13"/></g></g></g></g></g><g id="g28329"><g id="g28343"><g class="cls-12"><g id="g28341" class="cls-5"><g id="g28339"><path id="path28337" class="cls-6" d="M712.07,614.84c14.23,0,14.26-22.13,0-22.13s-14.27,22.13,0,22.13"/></g></g></g></g></g><g id="g28345"><g id="g28359"><g class="cls-13"><g id="g28357" class="cls-5"><g id="g28355"><path id="path28353" class="cls-6" d="M540,1124.64c14.24,0,14.26-22.12,0-22.12s-14.26,22.12,0,22.12"/></g></g></g></g></g><g id="g28361"><g id="g28375"><g class="cls-14"><g id="g28373" class="cls-5"><g id="g28371"><path id="path28369" class="cls-6" d="M170.38,1003.57c14.25,0,14.27-22.13,0-22.13s-14.25,22.13,0,22.13"/></g></g></g></g></g><g id="g28377"><g id="g28391"><g class="cls-15"><g id="g28389" class="cls-5"><g id="g28387"><path id="path28385" class="cls-6" d="M775.79,1073.68c14.23,0,14.26-22.13,0-22.13s-14.27,22.13,0,22.13"/></g></g></g></g></g><g id="g28393"><g id="g28407"><g class="cls-16"><g id="g28405" class="cls-5"><g id="g28403"><path id="path28401" class="cls-6" d="M1546.88,1143.77c14.24,0,14.26-22.13,0-22.13s-14.26,22.13,0,22.13"/></g></g></g></g></g><g id="g28409"><g id="g28423"><g class="cls-17"><g id="g28421" class="cls-5"><g id="g28419"><path id="path28417" class="cls-6" d="M2043.94,984.45c14.24,0,14.26-22.12,0-22.12s-14.26,22.12,0,22.12"/></g></g></g></g></g><g id="g28425"><g id="g28439"><g class="cls-18"><g id="g28437" class="cls-5"><g id="g28435"><path id="path28433" class="cls-6" d="M2821.4,684.93c14.24,0,14.26-22.12,0-22.12s-14.26,22.12,0,22.12"/></g></g></g></g></g><g id="g28441"><g id="g28455"><g class="cls-19"><g id="g28453" class="cls-5"><g id="g28451"><path id="path28449" class="cls-6" d="M2846.9,1194.75c14.23,0,14.25-22.14,0-22.14s-14.27,22.14,0,22.14"/></g></g></g></g></g><g id="g28457"><g id="g28471"><g class="cls-20"><g id="g28469" class="cls-5"><g id="g28467"><path id="path28465" class="cls-6" d="M2196.89,1500.64c14.23,0,14.26-22.13,0-22.13s-14.27,22.13,0,22.13"/></g></g></g></g></g><g id="g28473"><g id="g28487"><g class="cls-21"><g id="g28485" class="cls-5"><g id="g28483"><path id="path28481" class="cls-6" d="M1687.07,1322.2c14.24,0,14.26-22.13,0-22.13s-14.26,22.13,0,22.13"/></g></g></g></g></g><g id="g28489"><g id="g28503"><g class="cls-22"><g id="g28501" class="cls-5"><g id="g28499"><path id="path28497" class="cls-6" d="M2649.36,952.59c14.24,0,14.26-22.13,0-22.13s-14.26,22.13,0,22.13"/></g></g></g></g></g><g id="g28505"><g id="g28519"><g class="cls-23"><g id="g28517" class="cls-5"><g id="g28515"><path id="path28513" class="cls-6" d="M2247.86,684.93c14.24,0,14.26-22.12,0-22.12s-14.26,22.12,0,22.12"/></g></g></g></g></g><g id="g28521"><g id="g28535"><g class="cls-24"><g id="g28533" class="cls-5"><g id="g28531"><path id="path28529" class="cls-6" d="M2356.2,1207.5c14.24,0,14.26-22.13,0-22.13s-14.26,22.13,0,22.13"/></g></g></g></g></g><g id="g28537"><g id="g28551"><g class="cls-25"><g id="g28549" class="cls-5"><g id="g28547"><path id="path28545" class="cls-6" d="M1903.75,1723.68c14.23,0,14.26-22.14,0-22.14s-14.27,22.14,0,22.14"/></g></g></g></g></g><g id="g28553"><g id="g28567"><g class="cls-26"><g id="g28565" class="cls-5"><g id="g28563"><path id="path28561" class="cls-6" d="M1687.07,1851.15c14.24,0,14.26-22.13,0-22.13s-14.26,22.13,0,22.13"/></g></g></g></g></g><g id="g28569"><g id="g28583"><g class="cls-27"><g id="g28581" class="cls-5"><g id="g28579"><path id="path28577" class="cls-6" d="M3063.58,1589.82c14.24,0,14.26-22.12,0-22.12s-14.26,22.12,0,22.12"/></g></g></g></g></g><g id="g28665"><g id="g28679"><g class="cls-28"><g id="g28677" class="cls-5"><g id="g28675"><path id="path28673" class="cls-6" d="M2719.44,1494.26c14.24,0,14.26-22.13,0-22.13s-14.27,22.13,0,22.13"/></g></g></g></g></g><g id="g28681"><g id="g28695"><g class="cls-29"><g id="g28693" class="cls-5"><g id="g28691"><path id="path28689" class="cls-6" d="M2445.42,1710.92c14.24,0,14.26-22.12,0-22.12s-14.26,22.12,0,22.12"/></g></g></g></g></g><g id="g28697"><g id="g28711"><g class="cls-30"><g id="g28709" class="cls-5"><g id="g28707"><path id="path28705" class="cls-6" d="M2891.51,1806.52c14.23,0,14.24-22.13,0-22.13s-14.27,22.13,0,22.13"/></g></g></g></g></g><g id="g28713"><g id="g28727"><g class="cls-31"><g id="g28725" class="cls-5"><g id="g28723"><path id="path28721" class="cls-6" d="M2477.28,684.93c14.23,0,14.26-22.12,0-22.12s-14.26,22.12,0,22.12"/></g></g></g></g></g><g id="g28729"><g id="g28743"><g class="cls-32"><g id="g28741" class="cls-5"><g id="g28739"><path id="path28737" class="cls-6" d="M1349.32,1016.32c14.24,0,14.26-22.13,0-22.13s-14.26,22.13,0,22.13"/></g></g></g></g></g><g id="g28745"><g id="g28759"><g class="cls-33"><g id="g28757" class="cls-5"><g id="g28755"><path id="path28753" class="cls-6" d="M1030.69,1239.36c14.24,0,14.26-22.14,0-22.14s-14.26,22.14,0,22.14"/></g></g></g></g></g><g id="g28761"><g id="g28775"><g class="cls-34"><g id="g28773" class="cls-5"><g id="g28771"><path id="path28769" class="cls-6" d="M412.55,1016.32c14.24,0,14.26-22.13,0-22.13s-14.26,22.13,0,22.13"/></g></g></g></g></g><g id="g28777"><g id="g28791"><g class="cls-35"><g id="g28789" class="cls-5"><g id="g28787"><path id="path28785" class="cls-6" d="M164.05,1194.75c14.24,0,14.26-22.14,0-22.14s-14.27,22.14,0,22.14"/></g></g></g></g></g><g id="g28793"><g id="g28807"><g class="cls-36"><g id="g28805" class="cls-5"><g id="g28803"><path id="path28801" class="cls-6" d="M973.34,723.18c14.24,0,14.26-22.13,0-22.13s-14.26,22.13,0,22.13"/></g></g></g></g></g><g id="g28809"><g id="g28823"><g class="cls-37"><g id="g28821" class="cls-5"><g id="g28819"><path id="path28817" class="cls-6" d="M2133.21,1749.22c14.24,0,14.26-22.13,0-22.13s-14.25,22.13,0,22.13"/></g></g></g></g></g><g id="g28825"><g id="g28839"><g class="cls-38"><g id="g28837" class="cls-5"><g id="g28835"><path id="path28833" class="cls-6" d="M1980.21,1150.14c14.24,0,14.26-22.12,0-22.12s-14.25,22.12,0,22.12"/></g></g></g></g></g><g id="g28841"><g id="g28855"><g class="cls-39"><g id="g28853" class="cls-5"><g id="g28851"><path id="path28849" class="cls-6" d="M1476.78,869.75c14.23,0,14.26-22.13,0-22.13s-14.26,22.13,0,22.13"/></g></g></g></g></g><g id="g28873"><g id="g28933"><g class="cls-40"><g id="g28931" class="cls-41"><g id="g28929"><g class="cls-42"><g id="g28927"><g id="g28925"><g id="g28923"><g id="g28921"><path id="path28919" class="cls-43" d="M2009.85,708.58l542.86,168.17A20.85,20.85,0,1,0,2565.3,837c-.58-.18-1.16-.34-1.74-.47Z"/></g></g></g></g></g></g></g></g></g></g><g id="g28935"><g id="g28995"><g class="cls-44"><g id="g28993" class="cls-41"><g id="g28991"><g class="cls-45"><g id="g28989"><g id="g28987"><g id="g28985"><g id="g28983"><path id="path28981" class="cls-46" d="M1993.33,768.87l558.14,107.06a20.85,20.85,0,0,0,7.33-41.06l-1-.15Z"/></g></g></g></g></g></g></g></g></g></g><g id="g28997"><g id="g29057"><g class="cls-47"><g id="g29055" class="cls-41"><g id="g29053"><g class="cls-48"><g id="g29051"><g id="g29049"><g id="g29047"><g id="g29045"><path id="path29043" class="cls-49" d="M1415.61,476.53l555.07,122a20.85,20.85,0,1,0,9.5-40.61c-.67-.15-1.34-.28-2-.37Z"/></g></g></g></g></g></g></g></g></g></g><g id="g30288"><g id="g30286"><g class="cls-50"><g id="g30284" class="cls-41"><g id="g30282"><g class="cls-51"><g id="g30280"><g id="g30278"><g id="g30276"><g id="g30274"><path id="path30272" class="cls-52" d="M474.5,467.35l558.11,107a20.85,20.85,0,0,0,7.39-41c-.35-.06-.7-.12-1-.16Z"/></g></g></g></g></g></g></g></g></g></g></g></g></g></svg>