<?xml version="1.0" encoding="utf-8"?>
<!-- Generator: Adobe Illustrator 25.2.1, SVG Export Plug-In . SVG Version: 6.00 Build 0)  -->
<svg version="1.1" id="Ebene_1" xmlns="http://www.w3.org/2000/svg" xmlns:xlink="http://www.w3.org/1999/xlink" x="0px" y="0px"
	 viewBox="0 0 172.9 192.4" style="enable-background:new 0 0 172.9 192.4;" xml:space="preserve">
<style type="text/css">
	.st0{fill:#3DE2B3;}
	.st1{fill:#00C994;}
	.st2{fill:#43FFCE;}
</style>
<g>
	<g>
		<path class="st0" d="M26.9,86.2c-2.8-2.2-5.5-4.3-7.9-6.4C5.3,68-1.1,58.3,1.6,53c1.5-2.9,5.7-4.4,12.3-4.4
			c7.5,0,17.6,1.9,29.4,5.4c0.3-0.3,0.5-0.5,0.8-0.8c-12-3.6-22.5-5.6-30.1-5.6c-7.1,0-11.6,1.7-13.2,5c-2.9,5.8,3.3,15.7,17.7,27.9
			c2.6,2.2,5.4,4.5,8.4,6.8C26.8,86.9,26.9,86.5,26.9,86.2z"/>
		<path class="st0" d="M146.2,105.1c-0.1,0.4-0.1,0.8-0.2,1.1c18.5,14.1,28.7,26.6,25.3,33.2c-1.5,2.9-5.7,4.4-12.3,4.4
			c-7.5,0-17.7-1.9-29.4-5.4c-0.3,0.3-0.5,0.5-0.8,0.8c12,3.6,22.5,5.6,30.1,5.6c7.1,0,11.6-1.7,13.2-5
			C175.8,132.7,165.4,119.7,146.2,105.1z"/>
	</g>
	<circle class="st1" cx="86.5" cy="96.2" r="60.4"/>
	<ellipse class="st2" cx="83.1" cy="92.9" rx="57" ry="57"/>
	<g>
		<path class="st0" d="M172.2,52.5c-1.7-3.3-6.1-5-13.2-5c-7.3,0-17,1.8-28.2,5.1c0.2,0.3,0.4,0.6,0.6,0.9c11-3.2,20.5-4.9,27.6-4.9
			c6.6,0,10.9,1.5,12.3,4.4c2.7,5.2-3.7,15-17.4,26.7c-14.1,12.1-34.4,25.1-57.1,36.7C64.1,133,31.6,143.8,14,143.8
			c-6.6,0-10.9-1.5-12.3-4.4c-2.7-5.2,3.7-15,17.4-26.7c1-0.9,2.1-1.8,3.2-2.7c-0.3-0.2-0.6-0.4-0.9-0.6c-1,0.8-2,1.7-3,2.5
			c-14.3,12.3-20.6,22.2-17.7,28c1.7,3.3,6.1,5,13.2,5c17.8,0,50.5-10.8,83.3-27.5c22.8-11.6,43.2-24.7,57.3-36.8
			C168.9,68.2,175.1,58.3,172.2,52.5z"/>
	</g>
	<g>
		<path class="st0" d="M43.3,138.4c-11.7,3.5-21.9,5.4-29.4,5.4c-6.6,0-10.9-1.5-12.3-4.4c-2.7-5.2,3.7-15,17.4-26.7
			c2.5-2.1,5.1-4.2,7.9-6.4c-0.1-0.4-0.1-0.7-0.2-1.1c-3,2.3-5.8,4.5-8.4,6.8C4,124.3-2.3,134.2,0.6,140c1.7,3.3,6.1,5,13.2,5
			c7.7,0,18.1-2,30.2-5.6C43.8,138.9,43.6,138.7,43.3,138.4z"/>
		<path class="st0" d="M172.2,52.5c-1.7-3.3-6.1-5-13.2-5c-7.7,0-18.1,2-30.2,5.6c0.3,0.3,0.5,0.5,0.8,0.8
			c11.7-3.5,21.9-5.4,29.4-5.4c6.6,0,10.9,1.5,12.3,4.4c2.7,5.2-3.7,15-17.4,26.7c-2.5,2.1-5.1,4.2-7.9,6.4c0.1,0.4,0.1,0.7,0.2,1.1
			c3-2.3,5.8-4.5,8.4-6.8C168.9,68.2,175.1,58.3,172.2,52.5z"/>
	</g>
	<g>
		<path class="st0" d="M103.5,161.4c-0.2,0.8-0.3,1.5-0.5,2.2c-4.1,17.6-9.8,27.7-15.7,27.8v0.5v-0.5c-12.5,0-23.1-42.6-23.5-95
			C63.3,43.9,73.1,1.1,85.7,1c7.1,0,13.5,13.7,17.9,35.1c0.3-0.1,0.6-0.2,1-0.3C100,13.9,93.2,0,85.6,0
			C72.3,0.1,62.3,42.5,62.7,96.4c0.5,53.8,11.3,96,24.5,96h0.1c6.5-0.1,12.4-10.2,16.6-28.6c0.2-0.8,0.3-1.5,0.5-2.3
			C104.1,161.5,103.8,161.5,103.5,161.4z"/>
	</g>
	<g>
		<path class="st0" d="M97.2,75.1C64.4,58.4,31.7,47.6,13.9,47.6c-7.1,0-11.6,1.7-13.2,5C-2.2,58.4,4,68.3,18.4,80.5
			c0.8,0.7,1.7,1.4,2.5,2.1c0.2-0.3,0.5-0.5,0.8-0.7c-0.9-0.7-1.8-1.5-2.6-2.2C5.3,68-1.1,58.3,1.6,53c1.5-2.9,5.7-4.4,12.3-4.4
			c17.7,0,50.2,10.7,82.8,27.3c46.8,23.8,80.2,52.3,74.6,63.4c-1.5,2.9-5.7,4.4-12.3,4.4c-6.5,0-15-1.5-24.8-4.1
			c-0.2,0.3-0.4,0.6-0.7,0.8c10.1,2.8,18.8,4.3,25.5,4.3c7.1,0,11.6-1.7,13.2-5C178.2,128,145.3,99.5,97.2,75.1z"/>
	</g>
	<g>
		<path class="st0" d="M67.9,38.8C71.8,15.9,78.3,1.1,85.7,1c7.3,0,14,14.7,18.4,37.5c0.4,0.1,0.7,0.2,1.1,0.4
			C100.6,15.1,93.6,0,85.6,0c-8,0.1-14.8,15.3-18.8,39.2C67.1,39,67.5,38.9,67.9,38.8z"/>
		<path class="st0" d="M105,153.7c-0.6,3.5-1.3,6.8-2,10c-4.1,17.6-9.8,27.7-15.7,27.8v0.5v-0.5c-7.3,0-14-14.7-18.4-37.5
			c-0.4-0.1-0.7-0.2-1.1-0.4c4.5,23.7,11.5,38.8,19.5,38.8h0.1c6.5-0.1,12.4-10.2,16.6-28.6c0.8-3.3,1.5-6.9,2.1-10.6
			C105.7,153.4,105.4,153.5,105,153.7z"/>
	</g>
</g>
</svg>
