<?xml version="1.0" encoding="utf-8"?>
<!-- Generator: Adobe Illustrator 25.2.1, SVG Export Plug-In . SVG Version: 6.00 Build 0)  -->
<svg version="1.1" id="sleep-well" xmlns="http://www.w3.org/2000/svg" xmlns:xlink="http://www.w3.org/1999/xlink" x="0px" y="0px"
	 viewBox="0 0 180.2 227.6" style="enable-background:new 0 0 180.2 227.6;" xml:space="preserve">
<style type="text/css">
	.st0{fill:#E9EF14;}
	.st1{fill:#EBFF02;}
	.st2{fill:#450D99;}
</style>
<g>
	<circle class="st0" cx="60.4" cy="167.2" r="60.4"/>
	<ellipse transform="matrix(0.482 -0.8762 0.8762 0.482 -111.9379 135.9574)" class="st1" cx="59" cy="162.7" rx="57" ry="57"/>
	<polyline class="st1" points="39.3,170 71.6,81.4 6.6,65.6 18.5,0 180.2,45.8 161.4,102.2 93.7,88.9 64.3,169.6 	"/>
	<g>
		<path class="st2" d="M34.5,51c0.9-0.7,1.5-1.7,1.8-2.9s0.3-2.3,0.1-3.2c-0.2-0.9-0.6-1.7-1.2-2.4c-0.5-0.7-1.1-1.4-1.8-2.1
			c-0.6-0.8-1.2-1.5-1.7-2.2c-0.5-0.7-0.9-1.6-1.1-2.6c-0.2-1-0.2-2.2,0.1-3.3c0.5-2.1,1.6-3.7,3.1-4.6c1.6-1,3.5-1.2,5.8-0.6
			l3.2,0.8l-0.6,2.6l-3.1-0.7c-1.3-0.3-2.3-0.1-3.2,0.5c-0.9,0.7-1.4,1.5-1.6,2.4c-0.2,1-0.2,1.8,0.1,2.6s0.7,1.5,1.2,2.1
			c0.6,0.6,1.2,1.3,1.8,2.1c0.6,0.8,1.2,1.6,1.7,2.4c0.5,0.8,0.9,1.8,1,2.9c0.2,1.2,0.1,2.4-0.2,3.8c-0.6,2.5-1.8,4.2-3.5,5.2
			c-1.7,0.9-3.8,1.1-6.3,0.5l-4.2-1l0.6-2.6l4.3,1C32.4,51.9,33.6,51.7,34.5,51z"/>
		<path class="st2" d="M41.5,56.9L48.2,29l3.2,0.8l-6.7,27.9L41.5,56.9z"/>
		<path class="st2" d="M54.6,57.5l4.3,1l-0.6,2.4l-4.8-1.1c-1.5-0.4-2.5-1.1-3.2-2.2c-0.7-1.1-0.8-2.4-0.4-3.9l2.5-10.6
			c0.4-1.7,1.2-3,2.4-3.7c1.2-0.8,2.7-0.9,4.6-0.5c1.9,0.5,3.2,1.3,3.9,2.5c0.7,1.2,0.9,2.7,0.4,4.4l-0.4,1.8
			c-0.5,1.9-1.9,2.9-4.4,3l-5,0.2l-0.9,3.9c-0.2,0.6-0.1,1.2,0.2,1.7C53.6,57,54,57.4,54.6,57.5z M55.9,43.3l-1.2,5.1
			c0.7,0,1.3-0.1,2.1-0.1c0.7,0,1.2,0,1.5,0c0.3,0,0.6,0,0.9-0.1c0.3,0,0.5-0.1,0.6-0.3c0.3-0.4,0.4-0.8,0.6-1.3l0.5-2.2
			c0.4-1.6-0.2-2.7-1.9-3.1c-0.7-0.2-1.4-0.1-2,0.2C56.4,41.9,56,42.5,55.9,43.3z"/>
		<path class="st2" d="M68.6,60.8l4.3,1l-0.6,2.4l-4.8-1.1C66,62.8,65,62.1,64.3,61c-0.7-1.1-0.8-2.4-0.4-3.9l2.5-10.6
			c0.4-1.7,1.2-3,2.4-3.7c1.2-0.8,2.7-0.9,4.6-0.5c1.9,0.5,3.2,1.3,3.9,2.5c0.7,1.2,0.9,2.7,0.4,4.4l-0.4,1.8
			c-0.5,1.9-1.9,2.9-4.4,3l-5,0.2L67,58.2c-0.2,0.6-0.1,1.2,0.2,1.7C67.5,60.4,67.9,60.7,68.6,60.8z M69.8,46.6l-1.2,5.1
			c0.7,0,1.3-0.1,2.1-0.1c0.7,0,1.2,0,1.5,0s0.6,0,0.9-0.1c0.3,0,0.5-0.1,0.6-0.3c0.3-0.4,0.4-0.8,0.6-1.3l0.5-2.2
			c0.4-1.6-0.2-2.7-1.9-3.1c-0.7-0.2-1.4-0.1-2,0.2C70.3,45.2,70,45.8,69.8,46.6z"/>
		<path class="st2" d="M78.9,72.6l-3.2-0.8l6.5-27.1l6.5,1.5c1.5,0.4,2.6,1.1,3.4,2.3c0.8,1.2,1,2.5,0.7,4l-2.6,10.7
			c-0.3,1.4-1.1,2.5-2.4,3.2c-1.2,0.7-2.6,0.9-4,0.5l-3.3-0.8L78.9,72.6z M87.5,48.5l-2.6-0.6l-3.8,16l2.6,0.6
			c0.7,0.2,1.4,0.1,2.1-0.3c0.7-0.4,1.1-0.9,1.2-1.7l2.6-10.7c0.2-0.7,0.1-1.4-0.3-2.1C88.8,49.1,88.2,48.7,87.5,48.5z"/>
		<path class="st2" d="M108.2,56.6l4.1,1l-1,12.5l6.5-16.8l3.2,0.8l-8.8,19.8l-3.3-0.8l0.6-13l-5.3,11.9l-3.3-0.8l1.2-21.6l3.2,0.8
			l-1.8,17.9L108.2,56.6z"/>
		<path class="st2" d="M124.2,74.2l4.3,1l-0.6,2.4l-4.8-1.1c-1.5-0.3-2.5-1.1-3.2-2.2c-0.7-1.1-0.8-2.4-0.4-3.9l2.5-10.6
			c0.4-1.7,1.2-3,2.4-3.7s2.7-0.9,4.6-0.5c1.9,0.5,3.2,1.3,3.9,2.5c0.7,1.2,0.9,2.7,0.4,4.4l-0.4,1.8c-0.5,1.9-1.9,2.9-4.4,3l-5,0.2
			l-0.9,3.9c-0.2,0.6-0.1,1.2,0.2,1.7C123.1,73.7,123.6,74,124.2,74.2z M125.4,59.9l-1.2,5.1c0.7,0,1.3-0.1,2.1-0.1
			c0.7,0,1.2,0,1.5,0c0.3,0,0.6,0,0.9-0.1s0.5-0.1,0.6-0.3c0.3-0.4,0.4-0.8,0.6-1.3l0.5-2.2c0.4-1.6-0.2-2.7-1.9-3.1
			c-0.7-0.2-1.4-0.1-2,0.2C126,58.6,125.6,59.1,125.4,59.9z"/>
		<path class="st2" d="M132.9,78.8l6.7-27.9l3.2,0.8l-6.7,27.9L132.9,78.8z"/>
		<path class="st2" d="M140.9,80.7l6.7-27.9l3.2,0.8l-6.7,27.9L140.9,80.7z"/>
		<path class="st2" d="M149.1,82.6l1-4.1l3.2,0.8l-1,4.1L149.1,82.6z M159,55.5l-5.1,21.3l-3.2-0.8l5.1-21.3L159,55.5z"/>
	</g>
	<path class="st2" d="M43.2,136.9c-5.7,3.5-12,3.6-14.1,0.3c-2.1-3.4,0.9-8.9,6.5-12.4c5.7-3.5,12-3.6,14.1-0.3
		C51.8,127.8,48.9,133.4,43.2,136.9z"/>
	
		<ellipse transform="matrix(0.997 -7.759881e-02 7.759881e-02 0.997 -8.9131 4.7662)" class="st2" cx="56.9" cy="117.1" rx="5.9" ry="3"/>
	<circle class="st2" cx="73.4" cy="138.1" r="12.6"/>
	<circle class="st2" cx="77.8" cy="165.9" r="9.7"/>
	<circle class="st2" cx="47.8" cy="152.9" r="9.5"/>
	<path class="st2" d="M68.3,202.9c-3.9,7.1-12.8,9.7-19.9,5.8c-7.1-3.9-9.7-12.8-5.8-19.9c3.9-7.1,12.8-9.7,19.9-5.8
		C69.6,186.9,72.1,195.8,68.3,202.9z"/>
	<circle class="st2" cx="28.7" cy="180.4" r="8.6"/>
	
		<ellipse transform="matrix(0.9965 -8.299582e-02 8.299582e-02 0.9965 -12.6733 2.4496)" class="st2" cx="23.1" cy="153.7" rx="6.1" ry="11.7"/>
	
		<ellipse transform="matrix(0.9013 -0.4332 0.4332 0.9013 -75.0599 58.2856)" class="st2" cx="90.4" cy="193.9" rx="11.9" ry="7.4"/>
	
		<ellipse transform="matrix(0.9963 -8.599959e-02 8.599959e-02 0.9963 -13.7138 9.1489)" class="st2" cx="99.3" cy="163.7" rx="6.9" ry="11.8"/>
	<ellipse transform="matrix(0.9514 -0.308 0.308 0.9514 -38.3633 37.5843)" class="st2" cx="99.9" cy="140.3" rx="3.3" ry="5.7"/>
</g>
</svg>
